<svg xmlns="http://www.w3.org/2000/svg" viewBox="0 0 486.24 326.76"><defs><style>.\31 6d4a6a1-0b46-4411-8f52-cfb84d570fff{fill:#ffffff}.\36 433bf61-db31-4f33-b34d-520e4b4e576e{fill:#ffffff}.\35 6f852b2-2140-4bf2-87a8-4952df41e094{fill:#fff}.b07d65fd-3e0d-4b2a-968f-ec4114863897{fill:none}</style></defs><title>Asset 1</title><g id="6168e29e-807e-4c4f-bb94-596282cf4af2" data-name="Layer 2"><g id="e5d8dc94-f0cf-4c91-b8ee-3252ecbbd8a1" data-name="Layer 1"><path class="16d4a6a1-0b46-4411-8f52-cfb84d570fff" d="M243.12 4C111.27 4 4 75.5 4 163.38s107.27 159.38 239.12 159.38 239.12-71.5 239.12-159.38S375 4 243.12 4zm33.1 307.47c-83.42 7.6-152.33-11.15-206.78-53.88a1.32 1.32 0 0 0-.65-.27c-9.79-1.21-18.1-5.4-24.2-12.32-6.46-7.33-10-17.25-10-28v-.75C8.64 170 15.25 124.5 57.81 81.08c43.25-44.12 113.64-65.76 168.28-67C314.73 9.88 389.58 39.19 431.33 83v-3.41a1.35 1.35 0 0 1 1.13-1.31l5.25-.87a1.35 1.35 0 0 1 1.58 1.34v12.79a1.35 1.35 0 0 0 .3.85q1.73 2.14 3.37 4.32a1.86 1.86 0 0 0 1.79.72l.61-.1a1.35 1.35 0 0 1 1.57 1.38l-.09 2.65a2.4 2.4 0 0 0 .41 1.41A116 116 0 0 1 465 144.55c16 80.45-69 156.01-188.79 166.92z"/><path class="16d4a6a1-0b46-4411-8f52-cfb84d570fff" d="M344.53 197.92a5.3 5.3 0 0 0 7.12-1.24 4.63 4.63 0 0 0-1.17-6.74 5.3 5.3 0 0 0-7.12 1.24 4.63 4.63 0 0 0 1.17 6.74zm-21.8.61a2.9 2.9 0 0 0 2-1.1 3.14 3.14 0 0 0-.66-3.8 2.9 2.9 0 0 0-2.27-.38l-2.06.36.92 5.28zm121.89-24.93a5.3 5.3 0 0 0-7.12 1.24 4.63 4.63 0 0 0 1.17 6.74 5.3 5.3 0 0 0 7.12-1.24 4.64 4.64 0 0 0-1.17-6.74zm-122.44 76.95a2.91 2.91 0 0 0-2.05 1.26 3.38 3.38 0 0 0-.48 2.28 2.67 2.67 0 0 0 1 1.72 3.48 3.48 0 0 0 2.58.43 3.24 3.24 0 0 0 2.59-1.72 2.11 2.11 0 0 0 0-2.07 4.93 4.93 0 0 0-.4-.61 3.14 3.14 0 0 0-3.24-1.29zM402 182.06a2.71 2.71 0 0 0-1-1.8 2.82 2.82 0 0 0-2.24-.36l-2.06.36.92 5.28 2.06-.36a2.83 2.83 0 0 0 2-1.12 2.7 2.7 0 0 0 .32-2zM264.36 205a2.42 2.42 0 0 0-.52 1.5 2.33 2.33 0 0 0 0 .38 2.33 2.33 0 0 0 .5 1.13 2.65 2.65 0 0 0 1.28.8 6 6 0 0 0 1.82.25 10.93 10.93 0 0 0 1.77-.16 8.8 8.8 0 0 0 3.23-1.11 5.8 5.8 0 0 0 1.86-1.84 9.26 9.26 0 0 0 .93-1.91 19.33 19.33 0 0 0 .87-3.65c.2-1.3.33-2.78.41-4.39l-8.07 1.25a12.39 12.39 0 0 1 .51 2.92l.15 2.8-2.71.75a3.8 3.8 0 0 0-2.03 1.28z"/><path class="6433bf61-db31-4f33-b34d-520e4b4e576e" d="M75.47 106.65a6.9 6.9 0 0 0 5 1.22A7 7 0 0 0 83 107l-1.59-1.53 2-1.86 1.59 1.65a6.13 6.13 0 0 0-1.33-8.8 7 7 0 0 0-9.43 1.27 6.1 6.1 0 0 0 1.21 8.92zm147.62-23.9a3.72 3.72 0 0 0 2.67-1.37 4.13 4.13 0 0 0-.67-5 3.71 3.71 0 0 0-2.93-.59l-2.72.36.93 7zM112.33 94.16l-1.61 5.92 4.72-.63-3.11-5.29z"/><path class="6433bf61-db31-4f33-b34d-520e4b4e576e" d="M42.08 128.23a22.58 22.58 0 0 0 3.34-.36l1.45-.21 23-3.15A47.57 47.57 0 0 1 99.75 114a37.27 37.27 0 0 1 17.91 4c31.06-4.17 66-8.82 102-13.62 64.79-8.63 131.79-17.55 183.8-24.67a5.67 5.67 0 0 0 2.7-10.11C388.43 56.08 362.69 43.94 345 37.93c-2.4-.82-3.82-.93-4.61-.36s-.83 1.7-.82 3v27.19c.05 3.25-.23 6.74-4.3 6.91a4.9 4.9 0 0 1-3.73-1.15c-1.53-1.46-1.55-4-1.56-5.32V68c-.13-9.36-.15-19.5 0-31.91a10.08 10.08 0 0 0-.28-2.81 2.5 2.5 0 0 0-1.46-1.44 7.57 7.57 0 0 0-3.74-.42c-2.76.18-2.79 2.43-2.8 3.92v7.83c0 7.43.05 18.67 0 24.53v1.46c0 2.93 0 5.05-.65 6.47s-2 2.08-4.45 2.08c-4.6-.06-4.6-4.71-4.6-6.98v-.53c-.25-10-.25-20.55-.26-30.76v-7.12c-.18-3.51-.27-5.12-5.13-5.12a3.81 3.81 0 0 0-2.82.88c-1 1-.93 2.66-.91 4.61v.87c0 15.44.16 28 .36 39.6v2.91a4.78 4.78 0 0 1-4 4.51 8.78 8.78 0 0 1-1 0c-4.52-.1-4.47-4.06-4.44-6.18v-.75c-.35-9.92 0-41.61.12-45.8a3.87 3.87 0 0 0-2.8-3.86 56.8 56.8 0 0 0-9.43-1.57 345.1 345.1 0 0 0-83 1.44 288.55 288.55 0 0 0-71.81 19.44c-43.52 18.4-75.21 46.15-89.26 78.18l-.19.42c-.93 2.09-1.6 3.6.89 5.23a6.45 6.45 0 0 0 3.76 1.1zM269 66.88l8.64-1.15.36 2.57-8.62 1.15.66 4.91 7.1-.95.35 2.6-7.1.95.76 5.7 8.61-1.15.35 2.6-8.64 1.15-3 .4L266 67.28zM251 75a9.47 9.47 0 0 1 1.7-3.2 9.29 9.29 0 0 1 2.83-2.37 9.79 9.79 0 0 1 3.67-1.22 10 10 0 0 1 3.89.21l.44.12.45 3.4a6.87 6.87 0 0 0-4.4-.85 6.78 6.78 0 0 0-4.46 2.49 6.1 6.1 0 0 0 1.19 8.92 7 7 0 0 0 9.43-1.26 8.51 8.51 0 0 0 .56-.78l.52 3.92a11.5 11.5 0 0 1-1.46 1 10.5 10.5 0 0 1-3.7 1.23 10.26 10.26 0 0 1-3.87-.22 9.77 9.77 0 0 1-3.35-1.57 9.19 9.19 0 0 1-2.49-2.64 8.84 8.84 0 0 1-1.24-3.47A9.05 9.05 0 0 1 251 75zm-2.67-5.34l2.4 18.34-3 .41L245.24 70zM230.72 72l7.08 11.39 3.49-12.8 3.3-.44-5.77 20.32-11.46-18zm-12.1 1.61l3.19-.43a6.4 6.4 0 0 1 5.09 1.19 6.59 6.59 0 0 1 1.13 8.5 5.52 5.52 0 0 1-2.03 1.69l6.12 5.94-3.43.46-5.72-5.57-2.23.3.83 6.22-3 .41-2.45-18.39zm-12.76 1.7l8.64-1.15.34 2.58-8.62 1.15.65 4.91 7.1-.95.35 2.6-7.1.95.76 5.7 8.62-1.15.35 2.6-8.64 1.15-3 .4-2.45-18.39zm-14.25 4.93a4.21 4.21 0 0 1 1.17-2.24 5.24 5.24 0 0 1 2.22-1.39 5.5 5.5 0 0 1 2.91-.19 6.6 6.6 0 0 1 2.89 1.51l-2.14 2.13a2.69 2.69 0 0 0-2.7-.7 1.78 1.78 0 0 0-1.27 1.25c-.06.36 0 .93 1 1.56l3.64 2.52c.53.38 1.18.83 1.64 1.14a5.54 5.54 0 0 1 2 2.18 4.17 4.17 0 0 1 .4 2.57 5.59 5.59 0 0 1-3.9 4.18 6.4 6.4 0 0 1-1.17.26 6.68 6.68 0 0 1-2.36-.09 7.71 7.71 0 0 1-3.59-1.93l2.17-2.11a4.34 4.34 0 0 0 2.1 1.18 3.17 3.17 0 0 0 1.8-.09 2.57 2.57 0 0 0 1.84-1.81 2.12 2.12 0 0 0-1.17-2c-1-.65-2.56-1.78-2.67-1.86l-2.67-1.81a5.26 5.26 0 0 1-1.79-2 3.77 3.77 0 0 1-.35-2.29zm-19.06 2.46a4.86 4.86 0 0 1 1.13-1.74 6.69 6.69 0 0 1 3.91-1.88 7.25 7.25 0 0 1 2.9.19 5.62 5.62 0 0 1 2.58 1.6l-2.21 1.81a2.82 2.82 0 0 0-1.27-.76 4.2 4.2 0 0 0-1.64-.11 3.58 3.58 0 0 0-2.13 1 1.87 1.87 0 0 0-.62 1.57 2 2 0 0 0 1.45 1.62 12.08 12.08 0 0 0 5.55.27l.36 2.73a18.85 18.85 0 0 1-4.94.1 3.15 3.15 0 0 0-2.06 3.1 2.67 2.67 0 0 0 1.37 1.89 5 5 0 0 0 3.14.56 4.87 4.87 0 0 0 2.69-1.22l-.33-2.43 2.91-.39 1 7.29-2.91.39-.24-1.76a8.16 8.16 0 0 1-2.74.84 7.8 7.8 0 0 1-5.06-.94 5.55 5.55 0 0 1-1.79-1.63 4.85 4.85 0 0 1-.91-2.22 5.33 5.33 0 0 1 1-3.85 9.41 9.41 0 0 1 .67-.75 4.72 4.72 0 0 1-1.09-1 4.43 4.43 0 0 1-.74-4.32zm-23.91.24l3.27-.44 6 5.86 4.21-7.22 3.25-.43-5.64 9.68L161 100l-3 .41-1.28-9.61-7.33-7.2.25 1.84-5.34.71 2.11 15.81-3.06.41-2.11-15.81-5.34.71-.34-2.58 13.17-1.76zm-13.88 1.85l2.46 18.39-3 .41-2.46-18.39zm-11.36 1.5l2.12 15.79 8.12-1.09.35 2.6-8.14 1.09-3 .4-2.48-18.38zm-12 .76l11 18.1-3.33.45-2.18-3.72-6.91.93-1.13 4.19-3.35.45zm-19 3.41L94 102.6a3 3 0 0 0 1.54 2.34 5.09 5.09 0 0 0 3.08.47 5.21 5.21 0 0 0 2.84-1.27 2.93 2.93 0 0 0 .84-2.66l-1.6-12.14 3.06-.41 1.64 12.14a6.3 6.3 0 0 1-.28 2.89 6.15 6.15 0 0 1-1.46 2.22 8.75 8.75 0 0 1-9.64 1.3 5.59 5.59 0 0 1-2-1.75A6 6 0 0 1 91 103l-1.63-12.14zm-22.26 8.71A9.48 9.48 0 0 1 71.83 96a10.11 10.11 0 0 1 6.5-3.6 10.11 10.11 0 0 1 7.25 1.75 9.41 9.41 0 0 1 2.42 2.6 8.63 8.63 0 0 1 1.25 3.49 8.42 8.42 0 0 1-.28 3.67 9.13 9.13 0 0 1-1.67 3.2l-.18.23 2 1.94-2 1.86-2.09-2-.61.39a10.51 10.51 0 0 1-3.7 1.23 10.26 10.26 0 0 1-3.87-.21A9.77 9.77 0 0 1 73.6 109a9.22 9.22 0 0 1-2.49-2.64 8.84 8.84 0 0 1-1.24-3.47 9 9 0 0 1 .27-3.72z"/><path class="56f852b2-2140-4bf2-87a8-4952df41e094" d="M312.31 207.2a6.26 6.26 0 0 0 3.45-1.74 4.64 4.64 0 0 0 1-1.72 4.76 4.76 0 0 0 .13-2.2l-1.59-9.17-2.31.4 1.59 9.17a2.23 2.23 0 0 1-.56 2 4 4 0 0 1-2.12 1 3.88 3.88 0 0 1-2.35-.27 2.25 2.25 0 0 1-1.24-1.73l-1.59-9.17-2.29.4 1.59 9.17a4.54 4.54 0 0 0 .86 2 4.25 4.25 0 0 0 1.57 1.27 6.26 6.26 0 0 0 3.86.59zm9.52-1.65l-.82-4.7 2.06-.36a4.86 4.86 0 0 0 3.42-2 5 5 0 0 0-1.12-6.44 4.94 4.94 0 0 0-3.9-.73l-2.41.42-1.94.34 2.41 13.89zm0-12.3a2.9 2.9 0 0 1 2.27.38 3.14 3.14 0 0 1 .66 3.8 2.9 2.9 0 0 1-2 1.1l-2.06.36-.92-5.28zm9.95 10.57l-1.04-5.99 5.86-1.02 1.03 5.99 2.3-.4-2.41-13.88-2.29.39 1.02 5.94-5.85 1.01-1.03-5.93-2.3.4 2.41 13.89 2.3-.4zm9.43-6.01a7 7 0 0 0 2 1.94 7.45 7.45 0 0 0 2.59 1.09 7.84 7.84 0 0 0 2.94 0 8 8 0 0 0 2.77-1 7.91 7.91 0 0 0 2.08-1.9 7 7 0 0 0 1.18-2.48 6.7 6.7 0 0 0 .11-2.79 6.89 6.89 0 0 0-1-2.62 7.37 7.37 0 0 0-1.95-1.94 7.82 7.82 0 0 0-2.59-1.07 8 8 0 0 0-3 0 7.78 7.78 0 0 0-2.75 1 7.28 7.28 0 0 0-3.28 4.37 6.85 6.85 0 0 0-.1 2.81 6.73 6.73 0 0 0 1 2.59zm2.15-6.62a5.3 5.3 0 0 1 7.12-1.24 4.63 4.63 0 0 1 1.17 6.74 5.3 5.3 0 0 1-7.12 1.24 4.63 4.63 0 0 1-1.17-6.74zm16.09 5.8l-2.07-11.92-2.29.4 2.41 13.88 2.27-.39 6.16-1.07-.34-1.96-6.14 1.06zm12.78-6.99c-.37-.23-.87-.54-1.28-.82l-2.84-1.8c-.71-.46-.8-.88-.77-1.16a1.35 1.35 0 0 1 .93-1 2 2 0 0 1 2.08.45l1.56-1.68a5 5 0 0 0-2.24-1.06 4.19 4.19 0 0 0-2.2.23 4 4 0 0 0-1.62 1.09 3.2 3.2 0 0 0-.82 1.74 2.86 2.86 0 0 0 .34 1.75 4 4 0 0 0 1.42 1.47l2.08 1.3c.09.06 1.33.87 2.09 1.33a1.61 1.61 0 0 1 .95 1.46 2 2 0 0 1-1.34 1.43 2.4 2.4 0 0 1-1.36.12 3.29 3.29 0 0 1-1.63-.83l-1.58 1.73a5.87 5.87 0 0 0 2.74 1.36 5.07 5.07 0 0 0 1.79 0 4.75 4.75 0 0 0 .88-.23 4.24 4.24 0 0 0 2.83-3.29 3.16 3.16 0 0 0-.38-1.94 4.21 4.21 0 0 0-1.63-1.65zm10.54-9.34l-10.39 1.8.34 1.95 4.03-.7 2.08 11.94 2.31-.4-2.07-11.94 4.04-.7-.34-1.95zm5.33 11.36l-.75-4.31 5.37-.93-.34-1.96-5.37.93-.64-3.71 6.51-1.13-.34-1.94-6.53 1.13-2.27.39 2.41 13.89 2.27-.39 6.53-1.14-.34-1.96-6.51 1.13zm15.37-6.91a5 5 0 0 0-1.11-6.42 4.87 4.87 0 0 0-3.9-.75l-2.41.42-1.94.34 2.41 13.89 2.29-.4-.82-4.7 1.68-.29 4.51 4.06 2.59-.45-4.77-4.34a4.2 4.2 0 0 0 1.47-1.36zm-3.76.07l-2.06.36-.92-5.28 2.06-.36a2.82 2.82 0 0 1 2.24.36 3.14 3.14 0 0 1 .66 3.8 2.83 2.83 0 0 1-1.98 1.12zm13.48-9.8l-2.97 5.61-4.7-4.28-2.47.43 6.31 5.73 1.26 7.26 2.3-.4-1.26-7.26 3.99-7.52-2.46.43zm20.22 7.11a5.3 5.3 0 0 1-7.12 1.24 4.64 4.64 0 0 1-1.17-6.74 5.16 5.16 0 0 1 3.32-2 5.23 5.23 0 0 1 3.37.51l-.44-2.56-.34-.08a7.59 7.59 0 0 0-3 0 7.42 7.42 0 0 0-2.75 1 7 7 0 0 0-2.08 1.88 7.18 7.18 0 0 0-1.2 2.48 6.86 6.86 0 0 0-.1 2.81 6.69 6.69 0 0 0 1 2.59 7 7 0 0 0 2 1.94 7.46 7.46 0 0 0 2.59 1.09 7.84 7.84 0 0 0 2.94 0 8 8 0 0 0 2.78-1 8.88 8.88 0 0 0 1.08-.81l-.51-3a6.78 6.78 0 0 1-.37.65zm14.53-8.79a7.35 7.35 0 0 0-1.95-1.94 7.82 7.82 0 0 0-2.59-1.07 8 8 0 0 0-3 0 7.8 7.8 0 0 0-2.75 1 7.28 7.28 0 0 0-3.28 4.37 6.86 6.86 0 0 0-.1 2.81 6.72 6.72 0 0 0 1 2.59 7 7 0 0 0 2 1.94 7.44 7.44 0 0 0 2.59 1.09 7.82 7.82 0 0 0 2.94 0 8 8 0 0 0 2.77-1 7.89 7.89 0 0 0 2.08-1.9 7 7 0 0 0 1.18-2.48 6.7 6.7 0 0 0 .11-2.79 6.88 6.88 0 0 0-1-2.62zm-2.15 6.64a5.3 5.3 0 0 1-7.12 1.24 4.63 4.63 0 0 1-1.17-6.74 5.3 5.3 0 0 1 7.12-1.24 4.64 4.64 0 0 1 1.17 6.74zm6.3-.11a1.33 1.33 0 1 0 1.61 1.07 1.39 1.39 0 0 0-1.61-1.07zm-213.47 88.02a1.75 1.75 0 1 0 .54 3.46 1.75 1.75 0 1 0-.54-3.46zm12.1.41c-.48-.3-1.13-.73-1.67-1.1l-3.7-2.44c-.92-.61-1-1.18-1-1.54a1.78 1.78 0 0 1 1.25-1.28 2.69 2.69 0 0 1 2.72.64l2.1-2.17a6.6 6.6 0 0 0-2.93-1.44 5.51 5.51 0 0 0-2.9.25 5.25 5.25 0 0 0-2.16 1.4 4.24 4.24 0 0 0-1.12 2.28 3.76 3.76 0 0 0 .42 2.31 5.25 5.25 0 0 0 1.83 2l2.71 1.75c.12.08 1.73 1.17 2.72 1.8a2.12 2.12 0 0 1 1.21 1.94 2.57 2.57 0 0 1-1.8 1.85 3.18 3.18 0 0 1-1.8.13 4.32 4.32 0 0 1-2.13-1.14l-2.13 2.1a7.72 7.72 0 0 0 3.58 1.85 6.72 6.72 0 0 0 2.36 0 6.42 6.42 0 0 0 1.16-.28 5.59 5.59 0 0 0 3.8-4.26 4.17 4.17 0 0 0-.45-2.56 5.55 5.55 0 0 0-2.07-2.09z"/><path class="56f852b2-2140-4bf2-87a8-4952df41e094" transform="rotate(-8.85 255.542 267.552)" d="M253.85 258.13h3.07v18.55h-3.07z"/><path class="56f852b2-2140-4bf2-87a8-4952df41e094" d="M272.68 255.33l-3.05.47 1.83 11.76-14.14-10.73 2.99 19.19 3.03-.47-1.84-11.78 14.17 10.72-2.99-19.16zm17.71 11.18A7 7 0 0 1 281 268a6.1 6.1 0 0 1-1.39-8.89 6.79 6.79 0 0 1 4.39-2.61 6.87 6.87 0 0 1 4.42.75l-.53-3.38-.45-.11a10 10 0 0 0-3.9-.13 9.81 9.81 0 0 0-3.65 1.3 9.27 9.27 0 0 0-2.78 2.43 9.42 9.42 0 0 0-1.63 3.24 9 9 0 0 0-.2 3.7 8.84 8.84 0 0 0 1.31 3.44 9.2 9.2 0 0 0 2.54 2.59 9.79 9.79 0 0 0 3.39 1.5 10.26 10.26 0 0 0 3.87.13 10.51 10.51 0 0 0 3.67-1.31 11.68 11.68 0 0 0 1.44-1l-.61-3.9a8.46 8.46 0 0 1-.5.76zm5.41 1.33l-.88-5.68 7.08-1.1-.41-2.6-7.08 1.11-.76-4.89 8.6-1.34-.41-2.57-8.61 1.34-3.01.47 2.86 18.32 3-.46 8.62-1.35-.4-2.59-8.6 1.34zm12.26-12.79l2.16 2.02 2.14-2.08 1.97 12.62 3.03-.47-2.86-18.33-6.44 6.24zm13.67-7.36a6 6 0 0 0-4.2 2.6 6.26 6.26 0 0 0-.91 4.27 5.39 5.39 0 0 0 2.13 3.56 6.45 6.45 0 0 0 4.91 1 7.32 7.32 0 0 0 2.88-1.08 9.13 9.13 0 0 1-.87 2.51 5.68 5.68 0 0 1-1.88 2.19 6.56 6.56 0 0 1-3.12.92l.45 2.89a9.5 9.5 0 0 0 4.43-1.45 8.94 8.94 0 0 0 2.86-3.28c2-3.72 1.74-8.77-.54-11.73a6.23 6.23 0 0 0-6.14-2.4zm4.09 6.83a3.24 3.24 0 0 1-2.59 1.72 3.48 3.48 0 0 1-2.58-.43 2.67 2.67 0 0 1-1-1.72 3.38 3.38 0 0 1 .48-2.28 2.91 2.91 0 0 1 2.05-1.26 3.14 3.14 0 0 1 3.22 1.27 6.1 6.1 0 0 1 .82 1.49 3.41 3.41 0 0 1-.4 1.2z"/><path class="56f852b2-2140-4bf2-87a8-4952df41e094" d="M340 251.87a9.3 9.3 0 0 0-2.59-.51l2.54-6.52-10.68 1.66.44 2.84 5.56-.87-2.44 6.32 2.58-.43a6.61 6.61 0 0 1 3.37.18 2.84 2.84 0 0 1 1.54 1.28 3.59 3.59 0 0 1-.85 4.13c-1.63 1.57-4.39 1.67-7.56.22l-1.36 2.62a12.84 12.84 0 0 0 6.46 1.27l.44-.07a7.64 7.64 0 0 0 4.2-2 7 7 0 0 0 2-3.59 5.88 5.88 0 0 0-.58-3.88 5.73 5.73 0 0 0-3.07-2.65zm11.89-1.8a11.53 11.53 0 0 0-4.57 0l-.08-3.45 6.58-1-.44-2.84-9.24 1.44.22 9.68 1.92-.58a10.07 10.07 0 0 1 4.88-.41 3.4 3.4 0 0 1 2.16 1.31 2.83 2.83 0 0 1 .42 1.83 3.24 3.24 0 0 1-.86 1.83 4 4 0 0 1-2.59 1.21 9.6 9.6 0 0 1-4.89-1l-1.33 2.64a12.41 12.41 0 0 0 6.53 1.23l.34-.05a7.14 7.14 0 0 0 4.21-2.15 5.74 5.74 0 0 0 .73-7.15 6.2 6.2 0 0 0-3.99-2.54zm7.05-.57a1.75 1.75 0 1 0 .54 3.46 1.75 1.75 0 1 0-.54-3.46zM161.5 148.33c-9 1.48-12.86 28.21-9.93 46 .73 4.45 2.39 8.41 5.21 7.95 6.62-1.09 11-19.2 11.19-35.62l.1-6.82c.18-9.05-1.26-12.38-6.57-11.51zm111.79-18.41c-9 1.48-12.86 28.21-9.93 46 .73 4.45 2.39 8.41 5.21 7.95 6.62-1.09 11-19.2 11.19-35.62l.1-6.82c.14-9.05-1.25-12.43-6.57-11.51z"/><path class="16d4a6a1-0b46-4411-8f52-cfb84d570fff" d="M127.62 199.9c0-40.86-47-38.93-47-63.54 0-11.1 8.83-18 16.78-18 6.56 0 12.49 4.83 12.49 15.6 0 6-2.65 11.26-7.69 12.55-1.89 9.65 4.29 15.44 10.59 15.44 7.32 0 15.51-8.2 15.51-20.43 0-16.57-13.5-24.61-28.5-24.61-19 0-40.49 12.87-40.49 36.84 0 34.42 50.2 37 50.2 66.76 0 15.76-12.36 31.53-33.3 31.53-22.2 0-32.92-17.53-32.92-36 0-15.92 8.07-30.24 18.54-30.24 4.67 0 10.47 3.22 10.47 11.58 0 8.53-4.79 15-10.85 15.12-2.27 9.81 3.91 17.21 11.1 17.21 10 0 16.4-9 16.4-19.79 0-16.25-13.12-25.42-25.23-25.42-14.63 0-25.6 14-25.6 32 0 18.82 12.11 37.16 36.83 37.16 28.58-.03 52.67-24.48 52.67-53.76zm95.2-45.39c.42 6.62 5.59 8.89 10.47 8.08 9.66-1.59 13.89-9.76 12.69-17-1.07-6.51-6.31-11.89-16-10.3-11.07 1.82-17.11 10.51-19.8 39.49h-.45l1.91-25.62c.3-7.63-2.57-9.5-8.75-8.48-5.11.84-12.12 4.35-15.69 6.82v-3.79c-6.35 10.19-16.46 2.26-27.21 4-19.86 3.27-31.9 27-29.05 44.25 1.64 10 7.32 19.42 18.72 17.54 9.77-1.61 16.93-10.26 19.31-38.41h.45l-1.26 17.38c-1 14.1 7.76 16.67 17 15.15a36.87 36.87 0 0 0 7.58-2l.27-.38c-5.08-1.06-6.11-13.38-6-23l.19-30.49.16.11c2.88-1.48 4.88-.14 4.92 2.09l-.45 35.19c-.19 13.74 8 16.18 15.51 14.95a25.16 25.16 0 0 0 6.37-1.94l.27-.38c-4-1.24-3.17-15.2-2.56-23 1.58-19.55 6.12-33.9 12.85-35 2.5-.41 4.54 1.15 5.09 4.51.87 5.11-2.52 9.57-6.54 10.23zm-54.75 5.34l-.1 6.82c-.19 16.42-4.57 34.53-11.19 35.62-2.82.46-4.48-3.5-5.21-7.95-2.93-17.8.92-44.52 9.93-46 5.31-.88 6.75 2.45 6.57 11.51z"/><path class="16d4a6a1-0b46-4411-8f52-cfb84d570fff" d="M255.32 193.42c-6.19 1-10.34 6.27-9.34 12.35 1.63 9.88 14.43 9.78 23.44 8.29 20.62-3.4 30.1-15.55 30-30.81l-.41-58c-6.35 10.19-16.46 2.26-27.21 4-19.86 3.27-31.9 27-29.06 44.25 1.64 10 7.32 19.42 18.72 17.54 9.77-1.61 16.93-10.26 19.32-38.41h.45l-1.15 41.77c-.29 10.41-1.86 17.14-10.33 18.53-6 1-8.88-1.77-9.39-4.92-.46-2.82 1.13-6 5.08-7.08-.27-5.93-5.67-8.24-10.12-7.51zm24.55-52l-.1 6.82c-.19 16.42-4.57 34.53-11.19 35.62-2.82.46-4.48-3.5-5.21-7.95-2.93-17.8.92-44.52 9.93-46 5.31-.91 6.7 2.47 6.57 11.53zm41.06 3.58v.45c27.86 2.66 35.46-9.41 34.14-17.44-1.66-10.09-14.38-10.12-22.84-8.72-20.62 3.4-33.72 22.72-30.66 41.28 2.39 14.54 13.16 21.69 26.29 19.53 12.59-2.07 22.77-12 27.75-24.42l-.71-.22A22.09 22.09 0 0 1 339.42 166c-12 2-17.84-7.43-19.08-19-1.15-11.07 2.65-25.19 11-26.56 3.69-.61 6.76 1.79 7.46 6 1.28 7.64-3.09 16.95-17.87 18.56z"/><path class="16d4a6a1-0b46-4411-8f52-cfb84d570fff" d="M398 108.5c-9.77 1.61-19.55 9.91-22.25 38.89h-.45l1.93-25.51c.3-7.63-2.57-9.5-8.75-8.48-5.21.86-12.41 4.5-15.91 7l.38.27c2.88-1.48 4.88-.14 4.92 2.09l-.45 35.19c-.19 13.74 4.33 16.79 12.9 15.38a61.59 61.59 0 0 0 9-2.37l.27-.38c-4-1.24-3.19-15.31-2.58-23.1 1.35-16.83 6.79-30.55 12.87-31.55 2.61-.43 3.12 2.72 3.2 7.94l.09 27.63c.08 14 8.21 16.71 17.22 15.22a39.86 39.86 0 0 0 7.78-2.17l.27-.38c-5.08-1.06-6.11-13.38-6-23l.07-15.84c-.01-7.75-.98-19.07-14.51-16.83z"/><path class="16d4a6a1-0b46-4411-8f52-cfb84d570fff" d="M416.85 148.08c-.06 14.5 11.07 15.79 19.43 14.41a38.19 38.19 0 0 0 5.25-1.31l.27-.38c-5.08-1.06-6-13.39-6-23v-33.67l7.49-1.23v-1.12l-7.6 1.25.08-21.19-1 .16c0 15.82-7.56 22.43-23.2 25v1.12l4.88-.8z"/><path class="56f852b2-2140-4bf2-87a8-4952df41e094" d="M71.1 106.33a9.22 9.22 0 0 0 2.5 2.67 9.77 9.77 0 0 0 3.4 1.54 10.26 10.26 0 0 0 3.87.21 10.51 10.51 0 0 0 3.7-1.23l.61-.39 2.09 2 2-1.86-2-1.94.18-.23a9.13 9.13 0 0 0 1.67-3.2 8.42 8.42 0 0 0 .28-3.67 8.63 8.63 0 0 0-1.4-3.48 9.41 9.41 0 0 0-2.46-2.64 10.11 10.11 0 0 0-7.25-1.75 10.11 10.11 0 0 0-6.5 3.6 9.48 9.48 0 0 0-1.7 3.21 9 9 0 0 0-.27 3.7 8.84 8.84 0 0 0 1.28 3.46zm3.15-8.6a7 7 0 0 1 9.43-1.27 6.13 6.13 0 0 1 1.33 8.8l-1.66-1.62-2 1.86L83 107a7 7 0 0 1-2.53.85 6.9 6.9 0 0 1-5-1.22 6.1 6.1 0 0 1-1.21-8.92zM92 105.72a5.59 5.59 0 0 0 2 1.75 8.75 8.75 0 0 0 9.64-1.3 6.15 6.15 0 0 0 1.46-2.22 6.3 6.3 0 0 0 .28-2.89l-1.64-12.14-3.06.41 1.64 12.14a2.93 2.93 0 0 1-.84 2.66 5.21 5.21 0 0 1-2.84 1.27 5.09 5.09 0 0 1-3.08-.47A3 3 0 0 1 94 102.6l-1.6-12.14-3 .41L91 103a6 6 0 0 0 1 2.72zm18-2.92l6.91-.93 2.18 3.72 3.33-.45-11-18.1-5.88 20.36 3.35-.45zm2.36-8.64l3.11 5.28-4.71.63zm13.48 10.52l8.15-1.09-.35-2.6-8.12 1.09-2.12-15.79-3.04.41 2.47 18.38 3.01-.4z"/><path class="56f852b2-2140-4bf2-87a8-4952df41e094" transform="rotate(-7.61 134.49 94.198)" d="M132.94 84.89H136v18.55h-3.06z"/><path class="56f852b2-2140-4bf2-87a8-4952df41e094" d="M135.82 87.25l5.34-.71 2.11 15.81 3.06-.41-2.11-15.81 5.34-.71-.24-1.84 7.33 7.2 1.29 9.61 3.03-.41-1.28-9.61 5.63-9.68-3.24.43-4.21 7.22-5.95-5.86-3.27.44-13.18 1.76.35 2.57zm37.47-.25a4.72 4.72 0 0 0 1.09 1 9.41 9.41 0 0 0-.67.75 5.33 5.33 0 0 0-1 3.85 4.85 4.85 0 0 0 .91 2.22 5.55 5.55 0 0 0 1.79 1.63 7.8 7.8 0 0 0 5.06.94 8.16 8.16 0 0 0 2.74-.84l.24 1.76 2.91-.39-1-7.29-2.91.39.32 2.43a4.87 4.87 0 0 1-2.69 1.22 5 5 0 0 1-3.14-.56 2.67 2.67 0 0 1-1.37-1.89 3.15 3.15 0 0 1 2.06-3.1 18.85 18.85 0 0 0 4.94-.1l-.36-2.73a12.08 12.08 0 0 1-5.55-.27 2 2 0 0 1-1.44-1.62 1.87 1.87 0 0 1 .62-1.57 3.58 3.58 0 0 1 2.13-1 4.2 4.2 0 0 1 1.64.11 2.82 2.82 0 0 1 1.27.76l2.21-1.81a5.62 5.62 0 0 0-2.58-1.6 7.25 7.25 0 0 0-2.9-.19 6.69 6.69 0 0 0-3.91 1.88 4.86 4.86 0 0 0-1.13 1.74 4.43 4.43 0 0 0 .74 4.32zm20.47-2.46l2.67 1.81c.12.08 1.71 1.21 2.67 1.86a2.12 2.12 0 0 1 1.17 2 2.57 2.57 0 0 1-1.84 1.79 3.17 3.17 0 0 1-1.8.09 4.34 4.34 0 0 1-2.1-1.18L192.35 93a7.71 7.71 0 0 0 3.53 1.92 6.68 6.68 0 0 0 2.36.09 6.4 6.4 0 0 0 1.17-.26 5.59 5.59 0 0 0 3.9-4.18 4.17 4.17 0 0 0-.4-2.57 5.54 5.54 0 0 0-2-2.18c-.47-.32-1.11-.76-1.64-1.14l-3.64-2.52c-.91-.64-1-1.2-1-1.56a1.78 1.78 0 0 1 1.27-1.25 2.69 2.69 0 0 1 2.7.7l2.14-2.13a6.6 6.6 0 0 0-2.89-1.51 5.5 5.5 0 0 0-2.91.19 5.24 5.24 0 0 0-2.16 1.4 4.21 4.21 0 0 0-1.17 2.25 3.77 3.77 0 0 0 .36 2.32 5.26 5.26 0 0 0 1.79 1.97zm14.54 9.13l8.64-1.15-.34-2.6-8.62 1.15-.76-5.7 7.1-.95-.35-2.6-7.09.95-.66-4.91 8.62-1.15-.34-2.58-8.64 1.16-3.02.4 2.45 18.39 3.01-.41zm13.24-1.76l-.83-6.22 2.23-.3 5.72 5.61 3.43-.46-6.09-5.98a5.52 5.52 0 0 0 2-1.71 6.59 6.59 0 0 0-1.13-8.5 6.4 6.4 0 0 0-5.09-1.19l-3.19.43-2.57.34 2.45 18.39zm.62-16.15a3.71 3.71 0 0 1 2.93.59 4.13 4.13 0 0 1 .67 5 3.72 3.72 0 0 1-2.67 1.37l-2.72.36-.93-7zm22.44-5.64l-3.3.44-3.49 12.8-7.09-11.38-3.35.44 11.46 18.02 5.77-20.32z"/><path class="56f852b2-2140-4bf2-87a8-4952df41e094" transform="rotate(-7.58 247.89 79.04)" d="M246.45 69.76h3.06v18.55h-3.06z"/><path class="56f852b2-2140-4bf2-87a8-4952df41e094" d="M251.91 82.14a9.19 9.19 0 0 0 2.49 2.64 9.77 9.77 0 0 0 3.35 1.57 10.26 10.26 0 0 0 3.87.22 10.5 10.5 0 0 0 3.7-1.23 11.5 11.5 0 0 0 1.46-1l-.52-3.92a8.51 8.51 0 0 1-.56.78 7 7 0 0 1-9.43 1.26 6.1 6.1 0 0 1-1.19-8.92 6.78 6.78 0 0 1 4.46-2.49 6.87 6.87 0 0 1 4.4.85l-.45-3.4-.44-.12a10 10 0 0 0-3.89-.21 9.79 9.79 0 0 0-3.67 1.22 9.29 9.29 0 0 0-2.83 2.37A9.47 9.47 0 0 0 251 75a9.05 9.05 0 0 0-.28 3.69 8.84 8.84 0 0 0 1.19 3.45zm19.53 3.12l8.64-1.15-.35-2.6-8.61 1.15-.77-5.7 7.1-.95-.35-2.6-7.1.95-.65-4.91 8.61-1.15-.34-2.58-8.64 1.16-3.01.4 2.45 18.39 3.02-.41z"/><path class="56f852b2-2140-4bf2-87a8-4952df41e094" d="M414.73 47.61C368.86 16.91 307.92 0 243.12 0S117.38 16.91 71.51 47.61C25.4 78.47 0 119.59 0 163.38s25.4 84.91 71.51 115.78c45.87 30.7 106.81 47.61 171.61 47.61s125.74-16.91 171.61-47.61c46.11-30.86 71.51-72 71.51-115.78s-25.4-84.91-71.51-115.77zM243.12 322.76C111.27 322.76 4 251.26 4 163.38S111.27 4 243.12 4s239.12 71.5 239.12 159.38S375 322.76 243.12 322.76z"/><path class="b07d65fd-3e0d-4b2a-968f-ec4114863897" d="M106.83 247.24l.58-.43zm-1.61 1.11l.47-.32zm-1.65 1.06l.51-.33zm4.83-3.34l.51-.41zm-8.23 5.29l.46-.25zm23.58-23.03c.15-.27.29-.54.44-.81-.19.28-.29.55-.44.81zm-27.12 24.74l.4-.19zm5.25-2.65l.55-.33zm8.05-5.58l.63-.54zm7.02-6.84l.51-.61zm2.47-3.07l.44-.6zm1.16-1.59l.45-.65zm1.11-1.63l.46-.72zm1.06-1.71l.51-.87c-.17.33-.34.62-.51.87zm-4.54 6.48l.42-.54zm-2.57 2.98l.6-.67zm-2.77 2.79l.56-.55zm-18.05 11.59l.54-.23zm16.6-10.27l.69-.63zm-13.01 8.68l.49-.25zm168.02-48.49a3.8 3.8 0 0 0-2.07 1.25 2.42 2.42 0 0 0-.52 1.5 2.33 2.33 0 0 0 0 .38 2.33 2.33 0 0 0 .5 1.13 2.65 2.65 0 0 0 1.28.8 6 6 0 0 0 1.82.25 10.93 10.93 0 0 0 1.77-.16 8.8 8.8 0 0 0 3.23-1.11 5.8 5.8 0 0 0 1.86-1.84 9.26 9.26 0 0 0 .93-1.91 19.33 19.33 0 0 0 .87-3.65c.2-1.29.33-2.76.41-4.36l-8 1.24a12.38 12.38 0 0 1 .5 2.9l.15 2.79z"/><path class="b07d65fd-3e0d-4b2a-968f-ec4114863897" d="M255.32 193.42c-6.19 1-10.34 6.27-9.34 12.35 1.63 9.88 14.43 9.78 23.44 8.29 20.62-3.4 30.1-15.55 30-30.81l-.42-57.94c-6.35 10.08-16.44 2.2-27.16 4-19.86 3.27-31.9 27-29.06 44.25 1.64 10 7.32 19.42 18.72 17.54 9.77-1.61 16.93-10.26 19.32-38.41h.45l-1.15 41.77c-.29 10.41-1.86 17.14-10.33 18.53-6 1-8.88-1.77-9.39-4.92-.46-2.82 1.13-6 5.06-7.07-.3-6-5.7-8.31-10.14-7.58zM42.08 128.23a22.58 22.58 0 0 0 3.34-.36l1.45-.21 23-3.15A47.57 47.57 0 0 1 99.75 114a37.28 37.28 0 0 1 17.9 4.07c31.06-4.17 66-8.82 102-13.62 64.79-8.63 131.79-17.55 183.8-24.67a5.61 5.61 0 0 0 4.79-4.46 5.8 5.8 0 0 0-2.24-5.78C388.28 56 362.64 43.92 345 37.93c-2.4-.82-3.82-.93-4.61-.36s-.83 1.7-.82 3v27.19c.05 3.25-.23 6.74-4.3 6.91a4.9 4.9 0 0 1-3.73-1.15c-1.53-1.46-1.55-4-1.56-5.32V68c-.13-9.36-.15-19.5 0-31.91a10.08 10.08 0 0 0-.28-2.81 2.5 2.5 0 0 0-1.46-1.44 7.57 7.57 0 0 0-3.74-.42c-2.76.18-2.79 2.43-2.8 3.92v7.83c0 7.43.05 18.67 0 24.53v1.46c0 2.93 0 5.05-.65 6.47s-2 2.08-4.45 2.08c-4.6-.06-4.6-4.71-4.6-6.98v-.53c-.25-10-.25-20.55-.26-30.76v-7.12c-.18-3.51-.27-5.12-5.13-5.12a3.81 3.81 0 0 0-2.82.88c-1 1-.93 2.66-.91 4.61v.87c0 15.44.16 28 .36 39.6v2.91a4.78 4.78 0 0 1-4 4.51 8.77 8.77 0 0 1-1 0c-4.52-.1-4.47-4.06-4.44-6.18v-.75c-.35-9.94 0-41.73.12-45.83a4 4 0 0 0-.09-1c-.47-1.74-2.42-3.46-12.13-4.44a345.1 345.1 0 0 0-83 1.44 288.55 288.55 0 0 0-71.81 19.44C83.36 61.7 51.67 89.45 37.62 121.48l-.19.42c-.93 2.09-1.6 3.6.89 5.23a6.45 6.45 0 0 0 3.76 1.1z"/><path class="b07d65fd-3e0d-4b2a-968f-ec4114863897" d="M222.85 154.51c.43 6.6 5.59 8.87 10.47 8.06 9.66-1.59 13.89-9.76 12.69-17-1.07-6.51-6.31-11.89-16-10.3-11.07 1.82-17.11 10.51-19.8 39.49h-.45l1.91-25.62c.3-7.63-2.57-9.5-8.75-8.48-5.09.84-12.07 4.33-15.65 6.79v-3.66c-6.35 10.08-16.44 2.2-27.16 4-19.86 3.27-31.9 27-29.05 44.25 1.64 10 7.32 19.42 18.72 17.54 9.77-1.61 16.93-10.26 19.31-38.41h.45l-1.26 17.38c-1 14.1 7.76 16.67 17 15.15a36.87 36.87 0 0 0 7.58-2l.27-.38c-5.08-1.06-6.11-13.38-6-23l.19-30.49.16.11c2.88-1.48 4.88-.14 4.92 2.09l-.45 35.19c-.19 13.74 8 16.18 15.51 14.95a25.16 25.16 0 0 0 6.37-1.94l.27-.38c-4-1.24-3.17-15.2-2.56-23 1.58-19.55 6.12-33.9 12.85-35 2.5-.41 4.54 1.15 5.09 4.51.75 5.02-2.63 9.47-6.63 10.15zm193.65-47.14l.36 40.72c-.06 14.5 11.07 15.79 19.43 14.41a38.19 38.19 0 0 0 5.25-1.31l.27-.38c-5.08-1.06-6-13.39-6-23v-33.65l7.47-1.23v-1.12l-7.5 1.19.08-21.17-1 .16c0 15.82-7.56 22.43-23.2 25v1.12l4.85-.8-.01.06zm42.71 64.48c-1.91 25.33-14.71 49-34 68.79 19.29-19.77 32.26-42.92 34-68.79zM320.93 145v.45c27.86 2.66 35.46-9.41 34.14-17.44-1.66-10.09-14.38-10.12-22.84-8.72-20.62 3.4-33.72 22.72-30.66 41.28 2.39 14.54 13.16 21.69 26.29 19.53 12.59-2.07 22.77-12 27.75-24.42l-.71-.22A22.09 22.09 0 0 1 339.42 166c-12 2-17.84-7.43-19.08-19-1.15-11.07 2.65-25.19 11-26.56 3.69-.61 6.76 1.79 7.46 6 1.28 7.64-3.09 16.95-17.87 18.56z"/><path class="b07d65fd-3e0d-4b2a-968f-ec4114863897" d="M398 108.5c-9.77 1.61-19.55 9.91-22.25 38.89h-.45l1.93-25.51c.3-7.63-2.57-9.5-8.75-8.48-5.21.86-12.41 4.5-15.91 7l.38.27c2.88-1.48 4.88-.14 4.92 2.09l-.45 35.19c-.19 13.74 4.33 16.79 12.9 15.38a61.59 61.59 0 0 0 9-2.37l.27-.38c-4-1.24-3.19-15.31-2.58-23.1 1.35-16.83 6.79-30.55 12.87-31.55 2.61-.43 3.12 2.72 3.2 7.94l.09 27.63c.08 14 8.21 16.71 17.22 15.22a39.86 39.86 0 0 0 7.78-2.17l.27-.38c-5.08-1.06-6.11-13.38-6-23l.07-15.84c-.01-7.75-.98-19.07-14.51-16.83zM127.95 284.77h-.14zm-38.74-29.04l.72-.22zm45.12 22.72v-.34.45c-.01-.04 0-.07 0-.11zm-47.04-22.22L88 256zm3.81-1.06l.79-.27zm-5.75 1.48l.84-.18zm44.73 27.86h.06l-.21.06zm-.92.2h-.24zm-2.16-.08l-.26-.06zm-34-30.1l.56-.21zm34.62-54.63c0-40.86-47-38.93-47-63.54 0-11.1 8.83-18 16.78-18 6.56 0 12.49 4.83 12.49 15.6 0 5.95-2.64 11.25-7.68 12.54-1.88 9.64 4.29 15.43 10.6 15.43 7.32 0 15.51-8.2 15.51-20.43 0-16.57-13.5-24.61-28.5-24.61-19 0-40.49 12.87-40.49 36.84 0 34.42 50.2 37 50.2 66.76 0 15.76-12.36 31.53-33.3 31.53-22.2 0-32.92-17.53-32.92-36 0-15.92 8.07-30.24 18.54-30.24 4.67 0 10.47 3.22 10.47 11.58 0 8.52-4.78 14.95-10.83 15.12-2.26 9.8 3.92 17.19 11.1 17.19 10 0 16.4-9 16.4-19.79 0-16.25-13.12-25.42-25.23-25.42-14.63 0-25.6 14-25.6 32 0 18.82 12.11 37.16 36.83 37.16 28.54.01 52.63-24.44 52.63-53.72zm231.32 49.6a1.75 1.75 0 1 0 .54 3.46 1.75 1.75 0 1 0-.54-3.46zm-7.05.57a11.53 11.53 0 0 0-4.57 0l-.08-3.45 6.58-1-.44-2.84-9.24 1.44.22 9.68 1.92-.58a10.07 10.07 0 0 1 4.88-.41 3.4 3.4 0 0 1 2.16 1.31 2.83 2.83 0 0 1 .42 1.83 3.24 3.24 0 0 1-.86 1.83 4 4 0 0 1-2.59 1.21 9.6 9.6 0 0 1-4.89-1l-1.33 2.64a12.41 12.41 0 0 0 6.53 1.23l.34-.05a7.14 7.14 0 0 0 4.21-2.15 5.74 5.74 0 0 0 .73-7.15 6.2 6.2 0 0 0-3.99-2.54zm-11.89 1.8a9.3 9.3 0 0 0-2.59-.51l2.54-6.52-10.68 1.66.44 2.84 5.56-.87-2.44 6.32 2.58-.43a6.61 6.61 0 0 1 3.37.18 2.84 2.84 0 0 1 1.54 1.28 3.59 3.59 0 0 1-.85 4.13c-1.63 1.57-4.39 1.67-7.56.22l-1.36 2.62a12.84 12.84 0 0 0 6.46 1.27l.44-.07a7.64 7.64 0 0 0 4.2-2 7 7 0 0 0 2-3.59 5.88 5.88 0 0 0-.58-3.88 5.73 5.73 0 0 0-3.07-2.65zM372.23 190c-.37-.23-.87-.54-1.28-.82l-2.84-1.8c-.71-.46-.8-.88-.77-1.16a1.35 1.35 0 0 1 .93-1 2 2 0 0 1 2.08.45l1.56-1.68a5 5 0 0 0-2.24-1.06 4.19 4.19 0 0 0-2.2.23 4 4 0 0 0-1.62 1.09 3.2 3.2 0 0 0-.82 1.74 2.86 2.86 0 0 0 .34 1.75 4 4 0 0 0 1.42 1.47l2.08 1.3c.09.06 1.33.87 2.09 1.33a1.61 1.61 0 0 1 .95 1.46 2 2 0 0 1-1.34 1.43 2.4 2.4 0 0 1-1.36.12 3.29 3.29 0 0 1-1.63-.83l-1.58 1.73a5.87 5.87 0 0 0 2.74 1.36 5.07 5.07 0 0 0 1.79 0 4.75 4.75 0 0 0 .88-.23 4.24 4.24 0 0 0 2.83-3.29 3.16 3.16 0 0 0-.38-1.94 4.21 4.21 0 0 0-1.63-1.65zm-12.78 6.99l-2.07-11.92-2.29.4 2.41 13.88 2.27-.39 6.16-1.07-.34-1.96-6.14 1.06zm-63.65 70.85l-.88-5.68 7.08-1.1-.41-2.6-7.08 1.11-.76-4.89 8.6-1.34-.41-2.57-8.61 1.34-3.01.47 2.86 18.32 3-.46 8.62-1.35-.4-2.59-8.6 1.34z"/><path class="b07d65fd-3e0d-4b2a-968f-ec4114863897" d="M321.73 247.69a6 6 0 0 0-4.2 2.6 6.26 6.26 0 0 0-.91 4.27 5.39 5.39 0 0 0 2.13 3.56 6.45 6.45 0 0 0 4.91 1 7.32 7.32 0 0 0 2.88-1.08 9.13 9.13 0 0 1-.87 2.51 5.68 5.68 0 0 1-1.88 2.19 6.56 6.56 0 0 1-3.12.92l.45 2.89a9.5 9.5 0 0 0 4.43-1.45 8.94 8.94 0 0 0 2.86-3.28c2-3.72 1.74-8.77-.54-11.73a6.23 6.23 0 0 0-6.14-2.4zm-9.42-40.49a6.26 6.26 0 0 0 3.45-1.74 4.64 4.64 0 0 0 1-1.72 4.76 4.76 0 0 0 .13-2.2l-1.59-9.17-2.31.4 1.59 9.17a2.23 2.23 0 0 1-.56 2 4 4 0 0 1-2.12 1 3.88 3.88 0 0 1-2.35-.27 2.25 2.25 0 0 1-1.24-1.73l-1.59-9.17-2.29.4 1.59 9.17a4.54 4.54 0 0 0 .86 2 4.25 4.25 0 0 0 1.57 1.27 6.26 6.26 0 0 0 3.86.59zm-4.25 47.85l2.16 2.02 2.14-2.08 1.97 12.62 3.03-.47-2.86-18.33-6.44 6.24zm144.03-74.82a1.33 1.33 0 1 0 1.61 1.07 1.39 1.39 0 0 0-1.61-1.07zm-69.32.43l-10.39 1.8.34 1.95 4.03-.7 2.08 11.94 2.31-.4-2.07-11.94 4.04-.7-.34-1.95zm65.17-6.96a7.35 7.35 0 0 0-1.95-1.94 7.82 7.82 0 0 0-2.59-1.07 8 8 0 0 0-3 0 7.8 7.8 0 0 0-2.75 1 7.28 7.28 0 0 0-3.28 4.37 6.86 6.86 0 0 0-.1 2.81 6.72 6.72 0 0 0 1 2.59 7 7 0 0 0 2 1.94 7.44 7.44 0 0 0 2.59 1.09 7.82 7.82 0 0 0 2.94 0 8 8 0 0 0 2.77-1 7.89 7.89 0 0 0 2.08-1.9 7 7 0 0 0 1.18-2.48 6.7 6.7 0 0 0 .11-2.79 6.88 6.88 0 0 0-1-2.62zm-157.55 92.81A7 7 0 0 1 281 268a6.1 6.1 0 0 1-1.39-8.89 6.79 6.79 0 0 1 4.39-2.61 6.87 6.87 0 0 1 4.42.75l-.53-3.38-.45-.11a10 10 0 0 0-3.9-.13 9.81 9.81 0 0 0-3.65 1.3 9.27 9.27 0 0 0-2.78 2.43 9.42 9.42 0 0 0-1.63 3.24 9 9 0 0 0-.2 3.7 8.84 8.84 0 0 0 1.31 3.44 9.2 9.2 0 0 0 2.54 2.59 9.79 9.79 0 0 0 3.39 1.5 10.26 10.26 0 0 0 3.87.13 10.51 10.51 0 0 0 3.67-1.31 11.68 11.68 0 0 0 1.44-1l-.61-3.9a8.46 8.46 0 0 1-.5.76zm-165.7-39.92c.13-.25.25-.51.38-.76-.13.25-.25.51-.38.76zm308.72-44.1a5.3 5.3 0 0 1-7.12 1.24 4.64 4.64 0 0 1-1.17-6.74 5.16 5.16 0 0 1 3.32-2 5.23 5.23 0 0 1 3.37.51l-.44-2.56-.34-.08a7.59 7.59 0 0 0-3 0 7.42 7.42 0 0 0-2.75 1 7 7 0 0 0-2.08 1.88 7.18 7.18 0 0 0-1.2 2.48 6.86 6.86 0 0 0-.1 2.81 6.69 6.69 0 0 0 1 2.59 7 7 0 0 0 2 1.94 7.46 7.46 0 0 0 2.59 1.09 7.84 7.84 0 0 0 2.94 0 8 8 0 0 0 2.78-1 8.88 8.88 0 0 0 1.08-.81l-.51-3a6.78 6.78 0 0 1-.37.65zm-29.94 2.62a5 5 0 0 0-1.11-6.42 4.87 4.87 0 0 0-3.9-.75l-2.41.42-1.94.34 2.41 13.89 2.29-.4-.82-4.7 1.68-.29 4.51 4.06 2.59-.45-4.77-4.34a4.2 4.2 0 0 0 1.47-1.36zm9.72-9.73l-2.97 5.61-4.7-4.28-2.47.43 6.31 5.73 1.26 7.26 2.3-.4-1.26-7.26 3.99-7.52-2.46.43zm-25.09 16.64l-.75-4.31 5.37-.93-.34-1.96-5.37.93-.64-3.71 6.51-1.13-.34-1.94-6.53 1.13-2.27.39 2.41 13.89 2.27-.39 6.53-1.14-.34-1.96-6.51 1.13zm-273.29 48.3l-.53.55zm185.56-44.13c.11-.27.21-.54.31-.81-.1.27-.2.54-.31.81zm-57.94 5.72v.38c-.03-.13-.01-.29 0-.38zm58.72-7.77c.1-.28.17-.58.26-.86-.09.29-.16.58-.26.86zm-28.47 61.19l-3.05.47 1.83 11.76-14.14-10.73 2.99 19.19 3.03-.47-1.84-11.78 14.17 10.72-2.99-19.16zm-144.6-36.07l2.39-.35zm-2.51 5.55l.33-.72c-.11.24-.21.48-.33.72zm.83-1.81c.11-.25.21-.51.32-.77-.11.26-.21.52-.32.77zm.76-1.83c.12-.32.24-.64.36-1-.12.36-.24.68-.36 1zm172.29-23c.09-.18.17-.37.26-.55-.09.18-.17.38-.26.55zm-48.73 70.49c-.48-.3-1.13-.73-1.67-1.1l-3.7-2.44c-.92-.61-1-1.18-1-1.54a1.78 1.78 0 0 1 1.25-1.28 2.69 2.69 0 0 1 2.72.64l2.1-2.17a6.6 6.6 0 0 0-2.93-1.44 5.51 5.51 0 0 0-2.9.25 5.25 5.25 0 0 0-2.16 1.4 4.24 4.24 0 0 0-1.12 2.28 3.76 3.76 0 0 0 .42 2.31 5.25 5.25 0 0 0 1.83 2l2.71 1.75c.12.08 1.73 1.17 2.72 1.8a2.12 2.12 0 0 1 1.21 1.94 2.57 2.57 0 0 1-1.8 1.85 3.18 3.18 0 0 1-1.8.13 4.32 4.32 0 0 1-2.13-1.14l-2.13 2.1a7.72 7.72 0 0 0 3.58 1.85 6.72 6.72 0 0 0 2.36 0 6.42 6.42 0 0 0 1.16-.28 5.59 5.59 0 0 0 3.8-4.26 4.17 4.17 0 0 0-.45-2.56 5.55 5.55 0 0 0-2.07-2.09zm-12.1-.41a1.75 1.75 0 1 0 .54 3.46 1.75 1.75 0 1 0-.54-3.46zm-67.35-9.07a4.37 4.37 0 0 1 .1.93v17.7c0-.64 0-1.23.05-1.79l-.05-46.6h-.12c.02 2.34.02 16.58.02 29.76zm155.22-60.71a5 5 0 0 0-1.12-6.44 4.94 4.94 0 0 0-3.9-.73l-2.41.42-1.94.34 2.41 13.89 2.29-.4-.82-4.7 2.06-.36a4.86 4.86 0 0 0 3.43-2.02z"/><path class="b07d65fd-3e0d-4b2a-968f-ec4114863897" transform="rotate(-8.85 255.542 267.552)" d="M253.85 258.13h3.07v18.55h-3.07z"/><path class="b07d65fd-3e0d-4b2a-968f-ec4114863897" d="M341.21 197.81a7 7 0 0 0 2 1.94 7.45 7.45 0 0 0 2.59 1.09 7.84 7.84 0 0 0 2.94 0 8 8 0 0 0 2.77-1 7.91 7.91 0 0 0 2.08-1.9 7 7 0 0 0 1.18-2.48 6.7 6.7 0 0 0 .11-2.79 6.89 6.89 0 0 0-1-2.62 7.37 7.37 0 0 0-1.95-1.94 7.82 7.82 0 0 0-2.59-1.07 8 8 0 0 0-3 0 7.78 7.78 0 0 0-2.75 1 7.28 7.28 0 0 0-3.28 4.37 6.85 6.85 0 0 0-.1 2.81 6.73 6.73 0 0 0 1 2.59zm-160.74 93.47c0 4.93.57 9.45 9.37 10.6-8.84-1.15-9.26-5.88-9.37-10.6zm155.78-96.43l-5.85 1.01-1.03-5.93-2.3.4 2.41 13.89 2.3-.4-1.04-5.99 5.86-1.02 1.03 5.99 2.3-.4-2.41-13.88-2.29.39 1.02 5.94z"/><path class="56f852b2-2140-4bf2-87a8-4952df41e094" d="M465 144.55a116.26 116.26 0 0 0-18.19-42.42l.12-3.48a1.3 1.3 0 0 0-1.52-1.33l-1.77.29q-2.08-2.82-4.33-5.58V79.1a1.64 1.64 0 0 0-1.9-1.62l-4.65.77a1.68 1.68 0 0 0-1.41 1.63v3.14C389.6 39.23 314.75 9.92 226.11 14.1c-54.64 1.26-125 22.9-168.28 67C15.25 124.5 8.64 170 34.59 216.3v.75c0 10.7 3.56 20.63 10 28 6.17 7 14.58 11.21 24.55 12.37 54.5 42.89 123.5 61.72 207.07 54.1C396 300.56 481 225 465 144.55zM411.65 107c15.63-2.57 23.24-9.18 23.2-25l1-.16-.1 21.16 7.57-1.25v1.12l-7.47 1.23v33.65c0 9.58.93 21.92 6 23l-.27.38a38.19 38.19 0 0 1-5.25 1.31c-8.36 1.38-19.49.09-19.43-14.41l-.36-40.72-4.85.8zm.78 18.27l-.07 15.84c-.09 9.6.93 21.92 6 23l-.27.38a39.86 39.86 0 0 1-7.78 2.17c-9 1.48-17.14-1.19-17.22-15.22L393 123.8c-.08-5.23-.6-8.37-3.2-7.94-6.08 1-11.51 14.71-12.87 31.55-.61 7.79-1.42 21.86 2.58 23.1l-.27.38a61.59 61.59 0 0 1-9 2.37c-8.57 1.41-13.09-1.63-12.9-15.38l.45-35.19c0-2.22-2-3.57-4.92-2.09l-.38-.27c3.5-2.47 10.7-6.11 15.91-7 6.19-1 9.06.85 8.75 8.48l-1.93 25.51h.45c2.7-29 12.48-37.28 22.25-38.89 13.61-2.17 14.58 9.15 14.51 16.86zm-73.62 1.09c-.7-4.23-3.77-6.63-7.46-6-8.36 1.38-12.16 15.49-11 26.56 1.24 11.61 7 21 19.08 19a22.09 22.09 0 0 0 15.45-10.46l.71.22c-5 12.41-15.16 22.34-27.75 24.42-13.13 2.16-23.9-5-26.29-19.53-3.06-18.56 10-37.89 30.66-41.28 8.47-1.39 21.18-1.37 22.84 8.72 1.32 8-6.28 20.1-34.14 17.44V145c14.8-1.61 19.17-10.92 17.9-18.62zm-301.37-4.47l.19-.42c14-32 45.74-59.78 89.23-78.14a288.55 288.55 0 0 1 71.81-19.44 345.1 345.1 0 0 1 83-1.44c9.71 1 11.66 2.7 12.13 4.44a4 4 0 0 1 .09 1c-.16 4.09-.47 35.89-.12 45.83v.75c0 2.12-.08 6.07 4.44 6.18a8.77 8.77 0 0 0 1 0 4.78 4.78 0 0 0 4-4.51v-2.91c-.2-11.57-.31-24.16-.36-39.6v-.87c0-2 0-3.65.91-4.61a3.81 3.81 0 0 1 2.82-.88c4.87 0 5 1.6 5.13 5.12v7.12c0 10.21 0 20.78.26 30.76v.53c0 2.25 0 6.92 4.65 6.92 2.46 0 3.79-.62 4.45-2.08s.64-3.54.65-6.47V35.35c0-1.49 0-3.74 2.8-3.92a7.57 7.57 0 0 1 3.74.42 2.5 2.5 0 0 1 1.46 1.44A10.08 10.08 0 0 1 330 36c-.1 12.41-.09 22.55 0 31.91v.28c0 1.35 0 3.86 1.56 5.32a4.9 4.9 0 0 0 3.73 1.15c4.07-.17 4.36-3.65 4.3-6.91-.09-5.31-.07-10.71 0-15.94V40.56c0-1.33 0-2.48.82-3s2.22-.46 4.61.36c17.59 6 43.23 18.09 61 31.61a5.8 5.8 0 0 1 2.24 5.76 5.61 5.61 0 0 1-4.79 4.46c-52 7.11-119 16-183.8 24.67-36 4.8-71 9.45-102 13.62A37.28 37.28 0 0 0 99.75 114a47.57 47.57 0 0 0-29.88 10.5l-23 3.15-1.45.21a22.58 22.58 0 0 1-3.34.36 6.45 6.45 0 0 1-3.75-1.1c-2.49-1.63-1.82-3.12-.89-5.23zM269 200.2a12.38 12.38 0 0 0-.5-2.9l8-1.24c-.09 1.6-.21 3.06-.41 4.36a19.33 19.33 0 0 1-.87 3.65 9.26 9.26 0 0 1-.93 1.91 5.8 5.8 0 0 1-1.86 1.84 8.8 8.8 0 0 1-3.23 1.11 10.93 10.93 0 0 1-1.77.16 6 6 0 0 1-1.82-.25 2.65 2.65 0 0 1-1.28-.8 2.33 2.33 0 0 1-.5-1.13 2.33 2.33 0 0 1 0-.38 2.42 2.42 0 0 1 .52-1.5 3.8 3.8 0 0 1 2.07-1.25l2.69-.75zm-3.52.8c-3.93 1.1-5.52 4.26-5.06 7.07.52 3.15 3.42 5.9 9.39 4.92 8.47-1.39 10-8.12 10.33-18.53l1.15-41.77h-.45c-2.39 28.15-9.55 36.8-19.32 38.41-11.4 1.88-17.08-7.56-18.72-17.54-2.84-17.26 9.19-41 29.06-44.25 10.72-1.77 20.81 6.12 27.16-4l.41 57.93c.06 15.26-9.42 27.42-30 30.81-9 1.48-21.81 1.59-23.44-8.29-1-6.08 3.15-11.33 9.34-12.35 4.44-.73 9.84 1.6 10.16 7.56l-.02.03zm-36.08-56.71c-.55-3.37-2.59-4.92-5.09-4.51-6.73 1.11-11.28 15.46-12.85 35-.61 7.79-1.43 21.75 2.56 23l-.27.38a25.16 25.16 0 0 1-6.37 1.94c-7.49 1.23-15.7-1.21-15.51-14.95l.45-35.19c0-2.22-2-3.57-4.92-2.09l-.16-.11-.24 30.48c-.09 9.6.93 21.92 6 23l-.27.38a36.87 36.87 0 0 1-7.58 2c-9.23 1.52-18-1-17-15.15l1.26-17.38h-.45c-2.39 28.15-9.55 36.8-19.31 38.41-11.4 1.88-17.07-7.56-18.72-17.54-2.84-17.26 9.19-41 29.05-44.25 10.72-1.77 20.81 6.12 27.16-4v3.66c3.58-2.46 10.56-6 15.65-6.79 6.19-1 9.06.85 8.75 8.48l-1.91 25.62h.45c2.7-29 8.73-37.67 19.8-39.49 9.66-1.59 14.89 3.79 16 10.3 1.2 7.27-3 15.44-12.69 17-4.88.8-10-1.46-10.47-8.06 4.13-.6 7.51-5.05 6.67-10.14zM38.07 216.47c0-18 11-32 25.6-32 12.11 0 25.23 9.17 25.23 25.42 0 10.78-6.43 19.79-16.4 19.79-7.18 0-13.36-7.39-11.1-17.19 6-.17 10.83-6.6 10.83-15.12 0-8.36-5.8-11.58-10.47-11.58-10.47 0-18.54 14.32-18.54 30.24 0 18.5 10.72 36 32.92 36 20.94 0 33.3-15.76 33.3-31.53 0-29.76-50.2-32.33-50.2-66.76 0-24 21.44-36.84 40.49-36.84 15 0 28.5 8 28.5 24.61 0 12.23-8.2 20.43-15.51 20.43-6.3 0-12.48-5.78-10.6-15.43 5-1.29 7.68-6.6 7.68-12.54 0-10.78-5.93-15.6-12.49-15.6-7.95 0-16.78 6.92-16.78 18 0 24.61 47 22.68 47 63.54 0 29.28-24.09 53.73-52.72 53.73-24.63-.01-36.74-18.35-36.74-37.17zm421.14-44.62c-1.74 25.87-14.71 49-34 68.79-19.07 19.53-45.94 35.92-79.88 48.72-3.64 1.37-7.53 2.54-10.66 3.49a302.68 302.68 0 0 1-89.12 12.83 440.37 440.37 0 0 1-55.69-3.8c-8.8-1.15-9.37-5.67-9.37-10.6l.27-64.1a4.56 4.56 0 0 0-4.55-4.55h-.28a4.56 4.56 0 0 0-4.55 4.55v2.24l.05 46.6c0 .56 0 1.15-.05 1.79v14.13c-.16 3.44-2 4.41-4.41 4.41h-.11a4.42 4.42 0 0 1-4.41-4.41v-31.83a4.3 4.3 0 0 1 .06-.55v-12.47a13.43 13.43 0 0 0-.1-1.77V232a4.84 4.84 0 0 0-4.82-4.82 4.84 4.84 0 0 0-4.79 4.82l-.19 52.36v2.78a4.1 4.1 0 0 1-8.21 0V238.1a5 5 0 1 0-10.06 0v40.45c-.07 3.24-1 4.12-2.68 5.23a6.22 6.22 0 0 1-1.49.7h-.21a6.11 6.11 0 0 1-.78.17h-.24a6.09 6.09 0 0 1-1 0h-.14a6.09 6.09 0 0 1-.84-.13l-.26-.06a6.14 6.14 0 0 1-.95-.33 251.69 251.69 0 0 1-45.19-26.42l-.18-.13.21-.08.8-.31q2-.25 3.95-.64l.84-.18 1.1-.24.72-.13 1.22-.32.72-.22 1.17-.35.79-.27 1.08-.36.56-.21 1.28-.49.54-.23 1.27-.53.4-.19 1.38-.64.49-.25 1.26-.64.46-.25 1.26-.69.55-.33 1.13-.68.51-.33 1.14-.73.47-.32 1.14-.79.58-.43 1-.74.51-.41 1-.81.63-.54.86-.73.69-.63.76-.69.56-.55.85-.83.53-.55.83-.86.6-.67.71-.8.51-.61c.25-.3.51-.6.76-.9l.42-.54c.27-.34.53-.67.79-1l.44-.6c.24-.33.49-.66.72-1l.45-.65c.22-.33.45-.65.66-1l.46-.72c.2-.32.4-.63.6-.95s.34-.58.51-.87.33-.56.49-.84.29-.54.44-.81.34-.62.51-.94.25-.51.38-.76.34-.67.5-1 .22-.48.33-.72.34-.72.49-1.09.21-.51.32-.77.3-.71.44-1.07.24-.64.36-1 .23-.61.34-.92h.22l2.39-.35 2.89-.45c32.69-5.74 66.68-10.85 99.55-15.79l9.61-1.45c0 .23-.06.46-.08.69s0 .25 0 .38v1.07a14.54 14.54 0 0 0 .2 2.37 12.7 12.7 0 0 0 5.95 9 18.61 18.61 0 0 0 6.13 2.35 32.59 32.59 0 0 0 6.54.61 55.23 55.23 0 0 0 8.84-.78 51.69 51.69 0 0 0 14.33-4.39 33 33 0 0 0 14-12.42q.57-.94 1.07-1.92c.09-.18.17-.37.26-.55.23-.47.46-.95.67-1.43.11-.27.21-.54.31-.81s.33-.82.47-1.23.17-.58.26-.86.27-.83.38-1.25c11.45-1.86 22.84-3.77 34.08-5.76 25.49-4.52 51.41-9.1 76.48-13.52l34.31-6.06c6.38-1.13 9.92-1.41 11.57.17.93.99 1.12 2.57.93 5.05z"/><path class="16d4a6a1-0b46-4411-8f52-cfb84d570fff" d="M446.66 166.7l-34.31 6.06c-25.07 4.43-51 9-76.48 13.52-11.24 2-22.63 3.9-34.08 5.76-.11.42-.25.83-.38 1.25s-.17.58-.26.86-.31.82-.47 1.23-.2.55-.31.81c-.2.48-.44 1-.67 1.43-.09.18-.17.37-.26.55q-.5 1-1.07 1.92a33 33 0 0 1-14 12.42 51.69 51.69 0 0 1-14.37 4.4 55.23 55.23 0 0 1-8.84.78 32.59 32.59 0 0 1-6.54-.61 18.61 18.61 0 0 1-6.13-2.35 12.7 12.7 0 0 1-5.95-9 14.54 14.54 0 0 1-.2-2.37v-1.45c0-.13 0-.46.08-.69l-9.61 1.45c-32.81 4.95-66.81 10.06-99.45 15.8l-2.89.45-2.39.35h-.22c-.11.31-.23.61-.34.92s-.23.64-.36 1-.29.71-.44 1.07-.21.52-.32.77-.33.72-.49 1.09-.22.48-.33.72-.33.67-.5 1-.25.51-.38.76-.34.62-.51.94-.29.54-.44.81-.33.56-.49.84-.33.58-.51.87-.4.63-.6.95l-.46.72c-.22.33-.44.65-.66 1l-.45.65c-.24.33-.48.66-.72 1l-.44.6c-.26.34-.53.68-.79 1l-.42.54c-.25.3-.5.6-.76.9l-.51.61-.71.8-.6.67-.83.86-.53.55-.85.83-.56.55-.76.69-.69.63-.86.73-.63.54-1 .81-.51.41-1 .74-.58.43-1.14.79-.47.32-1.14.73-.51.33-1.13.68-.55.33-1.26.69-.46.25-1.27.61-.49.25-1.38.64-.4.19-1.27.53-.54.23-1.28.49-.56.21-1.08.36-.79.27-1.17.35-.72.22L88 256l-.7.18-1.1.24-.84.18q-2 .39-3.95.64l-.8.31-.21.08.18.13a251.69 251.69 0 0 0 45.19 26.42 6.14 6.14 0 0 0 .95.33l.26.06a6.09 6.09 0 0 0 .84.13h.14a6.09 6.09 0 0 0 1 0h.24a6.11 6.11 0 0 0 .78-.17l.21-.06a6.22 6.22 0 0 0 1.49-.7c1.71-1.11 2.61-2 2.68-5.23v-40.45a5 5 0 1 1 10.06 0v49.08a4.1 4.1 0 0 0 8.21 0v-2.78l.17-52.39a4.84 4.84 0 0 1 4.82-4.82 4.84 4.84 0 0 1 4.82 4.82v13.29a13.43 13.43 0 0 1 .1 1.77v12.47a4.3 4.3 0 0 0-.06.55v31.82a4.42 4.42 0 0 0 4.41 4.41h.11c2.42 0 4.25-1 4.41-4.41v-31.79a4.37 4.37 0 0 0-.1-.93v-29.76h.12v-2.24a4.56 4.56 0 0 1 4.55-4.55h.28a4.56 4.56 0 0 1 4.55 4.55l-.27 64.1c.1 4.74.57 9.45 9.37 10.6a440.37 440.37 0 0 0 55.69 3.8 302.68 302.68 0 0 0 89.12-12.83c3.13-.94 7-2.11 10.66-3.49 33.94-12.8 60.82-29.19 79.88-48.72 19.3-19.77 32.1-43.46 34-68.79.19-2.49 0-4.06-1-5-1.68-1.56-5.26-1.28-11.6-.15zm-106.39 25.7a7.28 7.28 0 0 1 3.28-4.37 7.78 7.78 0 0 1 2.75-1 8 8 0 0 1 3 0 7.82 7.82 0 0 1 2.59 1.07 7.37 7.37 0 0 1 1.91 1.9 6.89 6.89 0 0 1 1 2.62 6.7 6.7 0 0 1-.11 2.79 7 7 0 0 1-1.18 2.48 7.91 7.91 0 0 1-2.08 1.9 8 8 0 0 1-2.77 1 7.84 7.84 0 0 1-2.94 0 7.45 7.45 0 0 1-2.59-1.09 7 7 0 0 1-2-1.94 6.73 6.73 0 0 1-1-2.6 6.85 6.85 0 0 1 .14-2.76zm-2.75-3.88l2.41 13.89-2.29.4-1-6-5.86 1 1 6-2.29.4-2.41-13.89 2.29-.4 1 5.93 5.86-1-1-5.93zm-15.69 17l-2.29.4-2.41-13.89 1.94-.34 2.41-.42a4.94 4.94 0 0 1 3.9.73 5 5 0 0 1 1.12 6.44 4.86 4.86 0 0 1-3.42 2l-2.06.36zm-82.67 66.16a1.75 1.75 0 1 1 1.56-2 1.81 1.81 0 0 1-1.56 2.03zm14.08 1.65a5.59 5.59 0 0 1-3.8 4.26 6.42 6.42 0 0 1-1.16.28 6.72 6.72 0 0 1-2.36 0 7.72 7.72 0 0 1-3.58-1.85l2.13-2.15a4.32 4.32 0 0 0 2.13 1.14 3.18 3.18 0 0 0 1.8-.13 2.57 2.57 0 0 0 1.8-1.85 2.12 2.12 0 0 0-1.21-1.94c-1-.63-2.6-1.72-2.72-1.8l-2.71-1.75a5.25 5.25 0 0 1-1.83-2 3.76 3.76 0 0 1-.42-2.31 4.24 4.24 0 0 1 1.12-2.28 5.25 5.25 0 0 1 2.16-1.4 5.51 5.51 0 0 1 2.9-.25 6.6 6.6 0 0 1 2.93 1.44l-2.1 2.17a2.69 2.69 0 0 0-2.72-.64 1.78 1.78 0 0 0-1.25 1.28c0 .36.06.93 1 1.54l3.7 2.44c.54.37 1.19.8 1.67 1.1a5.55 5.55 0 0 1 2.07 2.13 4.17 4.17 0 0 1 .45 2.6zm2.06 3.45l-2.85-18.32 3-.47 2.86 18.32zm8-1.25l-3 .47-3-19.19 14.13 10.72-1.83-11.76 3.06-.48 3 19.16-14.16-10.68zm26.75-4.9a10.51 10.51 0 0 1-3.67 1.31 10.26 10.26 0 0 1-3.87-.13 9.79 9.79 0 0 1-3.39-1.5 9.2 9.2 0 0 1-2.54-2.59 8.84 8.84 0 0 1-1.31-3.44 9 9 0 0 1 .2-3.7 9.42 9.42 0 0 1 1.63-3.24 9.27 9.27 0 0 1 2.78-2.43 9.81 9.81 0 0 1 3.65-1.3 10 10 0 0 1 3.9.13l.45.11.53 3.38a6.87 6.87 0 0 0-4.42-.75 6.79 6.79 0 0 0-4.41 2.58A6.1 6.1 0 0 0 281 268a7 7 0 0 0 9.4-1.46 8.46 8.46 0 0 0 .54-.79l.61 3.9a11.68 11.68 0 0 1-1.46 1zm6.09-.21l-3 .47-2.85-18.32 3-.47 8.62-1.34.4 2.57-8.59 1.34.76 4.89 7.08-1.1.4 2.59-7.08 1.1.88 5.68 8.59-1.34.4 2.59zm10.73-65a4.54 4.54 0 0 1-.86-2l-1.59-9.17 2.29-.4 1.59 9.17a2.25 2.25 0 0 0 1.24 1.73 3.88 3.88 0 0 0 2.35.27 4 4 0 0 0 2.12-1 2.23 2.23 0 0 0 .56-2l-1.57-9.25 2.31-.4 1.59 9.17a4.76 4.76 0 0 1-.13 2.2 4.64 4.64 0 0 1-1 1.72 6.65 6.65 0 0 1-7.28 1.26 4.25 4.25 0 0 1-1.58-1.26zm7.41 62.15l-2-12.62-2.14 2.08-2.16-2 6.44-6.24 2.85 18.32zm14.1-5.81a8.94 8.94 0 0 1-2.86 3.28 9.5 9.5 0 0 1-4.43 1.45l-.45-2.89a6.56 6.56 0 0 0 3.12-.92 5.68 5.68 0 0 0 1.88-2.19 9.13 9.13 0 0 0 .87-2.51 7.32 7.32 0 0 1-2.88 1.08 6.45 6.45 0 0 1-4.91-1 5.39 5.39 0 0 1-2.13-3.56 6.26 6.26 0 0 1 .91-4.27 6 6 0 0 1 4.2-2.6 6.23 6.23 0 0 1 6.15 2.38c2.31 2.99 2.56 8.06.57 11.78zm15.22-3.43a7 7 0 0 1-2 3.59 7.64 7.64 0 0 1-4.2 2l-.44.07a12.84 12.84 0 0 1-6.46-1.27l1.36-2.62c3.17 1.45 5.93 1.35 7.56-.22a3.59 3.59 0 0 0 .85-4.13 2.84 2.84 0 0 0-1.54-1.28 6.61 6.61 0 0 0-3.37-.18l-2.58.43 2.44-6.32-5.56.87-.44-2.84 10.78-1.59-2.54 6.52a9.3 9.3 0 0 1 2.59.51 5.73 5.73 0 0 1 3 2.61 5.88 5.88 0 0 1 .59 3.88zm11.5 1.4a7.14 7.14 0 0 1-4.21 2.15l-.34.05a12.41 12.41 0 0 1-6.53-1.23l1.33-2.64a9.6 9.6 0 0 0 4.89 1 4 4 0 0 0 2.59-1.21 3.24 3.24 0 0 0 .86-1.83 2.83 2.83 0 0 0-.42-1.83 3.4 3.4 0 0 0-2.16-1.31 10.07 10.07 0 0 0-4.88.41l-1.92.58-.22-9.68 9.24-1.44.44 2.84-6.58 1 .08 3.45a11.53 11.53 0 0 1 4.57 0 6.2 6.2 0 0 1 4 2.54 5.74 5.74 0 0 1-.7 7.18zm4.34-6.8a1.75 1.75 0 1 1 1.56-2 1.81 1.81 0 0 1-1.52 2.07zm.29-54l-2.27.4-2.41-13.89 2.29-.4 2.11 11.96 6.13-1.06.34 2zm14.43-5.38a4.24 4.24 0 0 1-2.83 3.29 4.75 4.75 0 0 1-.88.23 5.07 5.07 0 0 1-1.79 0 5.87 5.87 0 0 1-2.74-1.36l1.59-1.66a3.29 3.29 0 0 0 1.63.83 2.4 2.4 0 0 0 1.36-.12 2 2 0 0 0 1.34-1.43 1.61 1.61 0 0 0-.95-1.46c-.75-.47-2-1.27-2.09-1.33l-2.08-1.3a4 4 0 0 1-1.42-1.47 2.86 2.86 0 0 1-.34-1.75 3.2 3.2 0 0 1 .82-1.74 4 4 0 0 1 1.63-1.09 4.19 4.19 0 0 1 2.2-.23 5 5 0 0 1 2.24 1.06l-1.56 1.68a2 2 0 0 0-2.08-.45 1.35 1.35 0 0 0-.93 1c0 .28.06.7.77 1.16l2.84 1.8 1.28.82a4.21 4.21 0 0 1 1.6 1.59 3.16 3.16 0 0 1 .44 1.96zm6.94 1.67l-2.32.4-2.07-11.94-4 .7-.34-1.95 10.39-1.8.34 1.95-4 .7zm7.28-1.26l-2.27.4-2.41-13.89 2.28-.4 6.53-1.13.34 1.95-6.48 1.11.64 3.71 5.36-.93.34 2-5.36.93.75 4.3 6.51-1.13.34 2zm15.77-2.74l-4.51-4.06-1.68.29.82 4.7-2.29.4-2.41-13.89 1.94-.34 2.41-.42a4.87 4.87 0 0 1 3.9.75 5 5 0 0 1 1.11 6.42 4.2 4.2 0 0 1-1.52 1.36l4.83 4.33zm8.72-1.51l-2.29.4-1.26-7.26-6.32-5.71 2.47-.43 4.7 4.27 3-5.61 2.45-.43-4 7.52zm20.32-4.09a8 8 0 0 1-2.78 1 7.84 7.84 0 0 1-2.94 0 7.46 7.46 0 0 1-2.59-1.09 7 7 0 0 1-2-1.94 6.69 6.69 0 0 1-1-2.59 6.86 6.86 0 0 1 .1-2.81 7.18 7.18 0 0 1 1.2-2.48 7 7 0 0 1 2.08-1.88 7.42 7.42 0 0 1 2.75-1 7.59 7.59 0 0 1 3 0l.34.08.44 2.56a5.23 5.23 0 0 0-3.37-.51 5.16 5.16 0 0 0-3.32 2 4.64 4.64 0 0 0 1.17 6.74 5.3 5.3 0 0 0 7.12-1.24 6.78 6.78 0 0 0 .4-.61l.51 3a8.88 8.88 0 0 1-1.06.8zm15.64-6.53a7 7 0 0 1-1.18 2.48 7.89 7.89 0 0 1-2.08 1.9 8 8 0 0 1-2.77 1 7.82 7.82 0 0 1-2.94 0 7.44 7.44 0 0 1-2.59-1.09 7 7 0 0 1-2-1.94 6.72 6.72 0 0 1-1-2.59 6.86 6.86 0 0 1 .1-2.81 7.28 7.28 0 0 1 3.28-4.37 7.8 7.8 0 0 1 2.75-1 8 8 0 0 1 3 0 7.82 7.82 0 0 1 2.59 1.07 7.35 7.35 0 0 1 1.95 1.94 6.88 6.88 0 0 1 1 2.62 6.7 6.7 0 0 1-.06 2.81zm3.67 3.74a1.33 1.33 0 1 1-.45-2.62 1.33 1.33 0 1 1 .45 2.62z"/></g></g></svg>