<svg xmlns="http://www.w3.org/2000/svg" viewBox="0 0 200 84">
  <path fill="currentColor" d="M194.5 1.0L194.5 33.5L197.0 38.5L191.0 39.5L188.0 38.5L186.0 36.0L185.5 12.5L183.5 12.5L187.0 12.0L192.0 9.0L194.5 1.0Z M196.5 10.0L197.5 10.5L196.5 10.0Z M175.5 13.0L179.5 13.0L182.5 16.0L183.0 34.0L185.5 40.5L178.5 41.5L175.0 39.0L174.0 37.0L174.0 18.0L173.0 16.5L170.0 17.5L167.0 24.5L169.0 18.0L171.5 15.0L175.5 13.0Z M161.0 15.5L165.5 16.5L165.5 25.0L166.5 25.0L165.5 29.5L165.5 42.0L166.5 43.5L163.5 44.5L159.0 44.5L157.0 42.5L156.5 39.5L157.0 19.5L155.0 18.0L161.0 15.5Z M27.5 17.0L38.0 19.0L42.5 23.0L43.5 25.5L42.5 35.0L39.0 38.5L36.0 39.0L33.0 37.5L31.0 34.0L31.0 32.5L35.0 28.5L35.0 21.5L32.5 18.5L30.0 17.5L25.0 18.5L20.5 24.0L21.5 31.5L37.5 43.0L41.5 48.0L43.5 54.5L42.5 66.0L37.5 74.5L30.5 80.5L24.5 83.5L12.5 83.5L7.0 80.5L3.0 76.5L0.0 69.5L1.0 59.0L4.0 54.0L7.5 51.0L11.5 50.0L17.5 51.0L22.0 54.5L24.5 59.5L24.5 65.5L22.5 69.5L20.0 71.5L14.5 71.5L12.0 69.0L11.5 64.5L16.0 61.0L16.5 53.5L13.5 50.5L9.5 50.5L5.5 53.5L2.5 60.0L2.0 67.0L3.5 74.0L8.5 80.5L16.5 83.5L23.5 83.0L29.5 80.0L35.0 71.5L35.0 64.5L33.5 61.0L27.0 54.5L15.0 46.5L12.0 42.0L10.5 36.5L11.0 30.0L14.0 24.5L21.0 19.0L27.5 17.0Z M145.0 18.0L152.5 19.0L154.5 21.0L154.5 26.0L148.5 30.5L140.5 31.5L147.0 26.5L147.5 21.5L145.0 18.0Z M141.0 19.0L142.5 19.0L139.5 21.5L138.0 26.0L138.0 33.5L139.5 38.0L144.5 41.5L150.0 41.0L154.0 37.0L154.5 38.0L151.5 42.5L146.5 46.5L139.0 48.0L135.5 47.5L131.0 44.0L129.0 39.0L129.0 33.0L132.0 25.5L141.0 19.0Z M127.5 22.0L127.5 53.5L125.5 58.0L121.5 61.5L114.0 64.0L118.0 61.0L119.0 52.5L118.5 25.5L117.0 23.5L125.5 24.0L127.5 22.0Z M113.0 23.5L114.0 23.5L111.5 26.5L110.0 32.0L109.5 44.5L111.5 50.0L115.0 48.5L117.0 43.0L116.5 46.5L112.0 52.5L104.5 52.5L102.0 50.0L100.0 45.0L101.0 36.5L94.0 39.5L91.0 37.5L91.0 35.5L94.0 33.0L93.5 29.0L90.5 28.0L87.0 33.0L87.0 31.5L90.0 27.5L97.5 26.0L100.5 28.5L101.5 33.0L102.5 33.0L109.0 25.0L113.0 23.5Z M79.0 29.0L83.5 29.0L84.5 30.0L84.5 35.5L85.5 36.0L84.5 37.5L84.5 55.0L85.5 56.5L84.5 57.5L78.5 57.5L75.5 53.0L75.5 32.5L74.0 31.5L79.0 29.0Z M72.5 31.0L72.5 53.0L75.0 58.5L67.5 59.5L64.0 56.0L63.0 50.5L64.0 35.0L62.0 32.0L70.5 33.0L72.5 31.0Z M59.0 32.0L56.5 35.5L55.0 43.5L55.0 54.0L56.5 59.0L59.0 59.0L62.0 53.5L62.0 54.5L59.5 59.5L57.0 61.5L51.5 62.0L46.0 56.5L46.0 45.5L50.0 38.0L59.0 32.0Z M193.0 42.0L195.0 42.0L197.5 44.0L197.5 46.5L195.5 48.5L192.5 48.5L190.5 46.5L191.0 43.5L193.0 42.0Z M187.0 43.0L189.0 43.0L189.0 44.0L187.0 44.0L185.5 47.5L187.5 49.0L190.5 48.0L189.5 49.5L186.5 49.5L185.0 47.5L185.0 45.0L187.0 43.0Z M195.0 43.5L191.5 44.0L192.5 48.0L196.0 47.5L196.5 44.0L195.0 43.5Z M181.5 44.0L180.0 47.0L180.0 51.0L179.0 47.5L176.5 45.0L180.0 47.0L181.5 44.0Z M174.0 45.0L176.5 47.0L175.5 50.0L177.5 51.5L173.5 49.5L173.5 52.0L168.5 53.0L167.5 48.0L165.0 47.5L165.5 53.5L164.5 53.5L164.0 48.5L162.5 47.0L167.5 47.0L174.0 45.0Z M172.0 47.0L168.5 47.0L168.5 49.0L170.5 49.0L168.5 50.0L169.0 52.0L172.5 52.0L172.0 47.0Z M175.5 47.0L173.0 46.5L173.0 48.5L175.0 49.0L175.5 47.0Z M199.0 47.0L199.5 48.0L199.0 47.0Z M159.5 47.5L161.5 48.0L159.5 48.5L159.5 50.0L162.5 52.0L161.0 54.5L158.5 54.0L155.0 55.5L155.0 54.0L153.0 53.5L152.0 55.5L149.5 56.5L145.5 54.0L146.0 56.5L145.0 56.5L145.0 54.5L143.0 54.0L142.0 54.5L142.0 57.5L141.0 54.5L137.5 55.5L137.0 58.5L136.5 57.0L135.0 57.0L133.5 59.0L130.0 57.5L129.5 53.0L130.5 53.0L131.0 57.5L134.0 58.0L134.0 52.0L136.0 52.5L137.0 51.0L140.0 52.0L141.0 51.0L141.5 53.5L143.5 53.5L144.5 50.0L145.0 52.0L146.5 52.0L149.0 49.0L154.0 51.5L154.0 48.5L155.5 54.0L161.0 53.5L161.0 51.5L158.0 49.5L159.5 47.5Z M150.5 50.5L147.5 51.0L147.0 53.5L148.0 55.0L152.0 54.5L152.5 52.0L150.5 50.5Z M138.5 52.5L136.5 52.5L137.0 55.0L139.0 55.0L139.5 52.5L138.5 52.5Z M104.5 55.0L109.5 55.0L110.5 56.0L111.0 58.0L108.5 60.0L108.5 62.5L112.5 64.5L105.5 64.5L103.0 63.0L102.0 57.5L104.5 55.0Z"/>
</svg>