<svg xmlns="http://www.w3.org/2000/svg" xmlns:xlink="http://www.w3.org/1999/xlink" width="997.139" height="419.747" viewBox="0 0 747.854 314.81"><defs><path id="a" d="M38.844-144.469c0 63.094 92.015 67.813 92.015 122.36 0 28.89-22.656 57.78-61.03 57.78-40.704 0-60.345-32.14-60.345-66.046 0-29.187 14.797-55.422 33.985-55.422 8.547 0 19.187 5.89 19.187 21.219 0 15.64-8.781 27.422-19.89 27.719-4.157 17.984 7.172 31.547 20.359 31.547 18.266 0 30.047-16.5 30.047-36.266 0-29.781-24.047-46.578-46.234-46.578C20.109-88.156 0-62.5 0-29.484c0 34.5 22.203 68.109 67.516 68.109 52.484 0 96.64-44.812 96.64-98.484 0-74.891-86.234-71.344-86.234-116.453 0-20.344 16.172-33.032 30.75-33.032 12.016 0 22.875 8.844 22.875 28.61 0 10.906-4.844 20.64-14.094 23-3.469 17.687 7.86 28.296 19.422 28.296 13.406 0 28.438-15.03 28.438-37.437 0-30.375-24.735-45.125-52.25-45.125-34.922 0-74.22 23.594-74.22 67.531m0 0"/><path id="b" d="M58.031-116.64c9.75-1.594 12.375 4.5 12.063 21.109l-.188 12.5c-.375 30.094-8.36 63.297-20.515 65.297-5.157.859-8.203-6.407-9.547-14.563-5.375-32.625 1.672-81.625 18.187-84.344m47.219-8.579c-11.625 18.672-30.187 4.14-49.875 7.375-36.406 6-58.469 49.485-53.25 81.125C5.141-18.422 15.563-1.14 36.453-4.579c17.89-2.937 31-18.796 35.375-70.39l.844.078-2.313 31.829C68.47-17.203 84.58-12.5 101.5-15.282c4.766-.796 9.484-1.968 13.875-3.718l.516-.703c-9.329-1.938-11.204-24.5-11.032-42.125zm0 0"/><path id="c" d="M40.969-50.266c2.89-35.843 11.234-62.14 23.562-64.172 4.578-.75 8.297 2.11 9.313 8.282 1.547 9.36-4.656 17.515-12.031 18.734.78 12.14 10.265 16.297 19.203 14.828 17.718-2.922 25.453-17.906 23.265-31.219-1.969-11.953-11.547-21.796-29.265-18.874-20.282 3.343-31.375 19.25-36.297 72.39l-.844-.078 3.516-46.953c.547-14-4.72-17.422-16.063-15.563-9.547 1.579-22.734 8.266-29.156 12.782l.703.5c5.281-2.704 8.953-.266 9.016 3.843L5.063-31.28C4.703-6.11 19.766-1.625 33.484-3.875c4.188-.687 8.266-1.969 11.672-3.562l.516-.688c-7.344-2.281-5.828-27.86-4.703-42.14m0 0"/><path id="d" d="M58.031-116.64c9.75-1.594 12.375 4.5 12.063 21.109l-.188 12.5c-.375 30.094-8.36 63.297-20.515 65.297-5.157.859-8.203-6.407-9.547-14.563-5.375-32.625 1.672-81.625 18.187-84.344m47.219-8.579c-11.625 18.672-30.187 4.14-49.875 7.375-36.406 6-58.469 49.485-53.25 81.125C5.141-18.422 15.563-1.14 36.453-4.579c17.89-2.937 31-18.796 35.375-70.39l.844.078-2.11 76.563c-.53 19.078-3.406 31.406-18.921 33.953-10.938 1.813-16.266-3.234-17.22-9-.843-5.187 2.063-10.969 9.313-13C43.156 2.703 33.25-1.594 25.094-.25 13.766 1.625 6.14 11.25 7.969 22.39c2.984 18.094 26.469 17.907 42.969 15.188C88.75 31.344 106.125 9.094 106-18.89Zm0 0"/><path id="e" d="m36.719-71.016-.063.813c51.078 4.875 64.985-17.25 62.563-31.969-3.047-18.5-26.344-18.547-41.86-15.984-37.796 6.219-61.796 41.64-56.187 75.672 4.39 26.656 24.125 39.75 48.203 35.78 23.078-3.796 41.719-21.983 50.86-44.765l-1.282-.375c-7.562 12.469-19.172 17.657-28.328 19.172-22.078 3.64-32.672-13.625-34.953-34.906-2.125-20.297 4.844-46.172 20.172-48.703 6.765-1.11 12.39 3.297 13.656 11.047 2.328 14.125-5.687 31.171-32.781 34.218m0 0"/><path id="f" d="M5.469-31.344C5.109-6.172 13.406-.562 29.109-3.156c4.782-.781 10.25-2.297 16.454-4.344l.5-.703c-7.329-2.266-5.86-28.047-4.735-42.328 2.484-30.86 12.438-56 23.578-57.828 4.781-.797 5.719 4.968 5.875 14.562l.156 50.64c.157 25.735 15.079 30.626 31.594 27.907 4.766-.781 9.64-2.203 14.25-3.984l.5-.688c-9.312-1.953-11.187-24.515-11.031-42.125l.125-29.031c.125-14.125-1.656-34.89-26.531-30.781-17.906 2.937-35.828 18.156-40.766 71.28l-.828-.062 3.531-46.75c.547-14-4.703-17.437-16.047-15.562-9.547 1.578-22.75 8.25-29.156 12.781l.688.484c5.297-2.687 8.953-.25 9.015 3.844zm0 0"/><path id="g" d="m40.64-152.781-1.796.297c.062 28.984-13.86 41.078-42.531 45.796l-.047 2.063 8.937-1.484.672 74.703C5.75-4.828 26.172-2.484 41.469-5c3.578-.594 6.906-1.547 9.625-2.39l.5-.688c-9.328-1.953-11-24.563-11.032-42.125l.047-61.734 13.75-2.266.047-2.047-13.922 2.297zm0 0"/><path id="h" d="M12.563-2.062c2.546-.422 4.78-1.532 6.359-3.141a8.5 8.5 0 0 0 1.937-3.14 8.76 8.76 0 0 0 .282-4.048l-2.782-16.828-4.265.703 2.781 16.829c.25 1.515-.094 2.78-1.062 3.734-.922.937-2.344 1.625-3.907 1.89-1.578.25-3.156.063-4.297-.53-1.218-.61-1.984-1.688-2.234-3.204L2.594-26.625l-4.219.703L1.156-9.094c.235 1.422.735 2.672 1.547 3.735A8 8 0 0 0 5.563-3c1.968 1.016 4.453 1.344 7 .938m0 0"/><path id="i" d="m-1.36-25.969 4.204 25.5 4.203-.687-1.422-8.625 3.781-.625c3.563-.594 5.406-2.297 6.297-3.64 1.219-1.72 1.594-3.907 1.203-6.282-.39-2.375-1.437-4.266-3.14-5.547-1.282-.953-3.578-2-7.141-1.406l-4.437.734zM12.517-16c-.735 1.031-1.97 1.703-3.703 1.984l-3.782.625-1.593-9.687 3.78-.625c1.735-.281 3.126-.016 4.141.719 1.141.875 1.61 2.297 1.766 3.28.172 1.032.188 2.517-.61 3.704m0 0"/><path id="j" d="m17.813-29.125-4.22.688 1.798 10.906L4.64-15.75 2.844-26.656l-4.203.687 4.203 25.5 4.203-.687-1.813-11 10.75-1.781 1.813 11 4.219-.688zm0 0"/><path id="k" d="M15.438-2.547a14.6 14.6 0 0 0 5.093-1.86c1.516-.921 2.766-2.077 3.844-3.452a13 13 0 0 0 2.203-4.532c.438-1.656.516-3.406.235-5.125a12.5 12.5 0 0 0-1.875-4.812 13.7 13.7 0 0 0-3.547-3.563c-1.453-.968-3-1.625-4.72-2.015a14.5 14.5 0 0 0-5.437-.14 14.3 14.3 0 0 0-5.062 1.858c-1.516.938-2.797 2.063-3.844 3.438C1.297-21.344.531-19.844.094-18.234a12.75 12.75 0 0 0-.235 5.156 12.45 12.45 0 0 0 1.875 4.781c.938 1.422 2.141 2.61 3.579 3.578 1.421.969 3 1.657 4.718 2.032 1.75.39 3.594.437 5.406.14m-3.547-21.5c2.484-.406 4.953.14 6.953 1.485 2.031 1.375 3.375 3.406 3.765 5.75.375 2.343-.25 4.687-1.718 6.625-1.47 1.937-3.625 3.234-6.11 3.64-2.469.406-4.953-.125-6.969-1.484-2.015-1.36-3.343-3.39-3.718-5.735-.39-2.343.218-4.687 1.672-6.64a9.7 9.7 0 0 1 6.125-3.64m0 0"/><path id="l" d="m17.703-6.625-11.25 1.86-3.61-21.891-4.202.687 4.203 25.5 4.172-.687 11.28-1.86zm0 0"/><path id="m" d="M15.594-11.5c-.578-1.125-1.578-2.14-2.906-2.953-.657-.422-1.579-1-2.329-1.516l-5.171-3.344c-1.297-.859-1.485-1.625-1.407-2.14.11-.75.797-1.469 1.719-1.797.734-.266 2.14-.5 3.797.875l2.875-3.062c-1.235-1.032-2.61-1.704-4.094-1.97a7.4 7.4 0 0 0-4.031.376 7.1 7.1 0 0 0-2.984 1.984c-.86.938-1.391 2-1.532 3.172-.156 1.078.078 2.219.61 3.219.53 1.031 1.39 1.953 2.578 2.703L6.5-13.547c.188.125 2.438 1.625 3.813 2.5.859.563 1.859 1.453 1.718 2.688-.172 1.062-1.156 2.125-2.5 2.593-.765.297-1.64.36-2.5.188-1.047-.172-2.062-.703-2.968-1.563L1.108-4.094C2.64-2.766 4.296-1.937 6.124-1.578c1.078.219 2.203.203 3.281.031a9.3 9.3 0 0 0 1.61-.406c2.859-1.031 4.89-3.39 5.25-5.984a5.67 5.67 0 0 0-.672-3.563m0 0"/><path id="n" d="m15.969-28.828-19.078 3.14.593 3.579 7.407-1.22L8.5-1.405l4.25-.688-3.61-21.922 7.422-1.234Zm0 0"/><path id="o" d="m3.438-23.078 11.953-1.969-.594-3.578-11.984 1.969-4.172.687 4.203 25.5 4.172-.687L19-3.125l-.594-3.61-11.953 1.97-1.297-7.907L15-14.297l-.594-3.61-9.843 1.626zm0 0"/><path id="p" d="M12.906-11.578a7.96 7.96 0 0 0 2.797-2.469c1.188-1.719 1.594-3.906 1.203-6.25-.39-2.36-1.468-4.297-3.14-5.547-1.282-.984-3.578-2.031-7.141-1.437l-4.437.734-3.547.578 4.203 25.5 4.203-.687-1.422-8.625 3.078-.516 8.219 7.516 4.765-.797zm-7.875-1.766-1.593-9.703 3.78-.625c1.735-.281 3.126-.047 4.095.703 1.187.86 1.624 2.282 1.78 3.297.173 1 .22 2.485-.624 3.688-.688 1.015-1.922 1.734-3.656 2.015zm0 0"/><path id="q" d="m19.875-29.469-4.5.75-5.547 10.235-8.547-7.922-4.547.75L8.22-15.046 10.422-1.72l4.203-.687-2.203-13.328zm0 0"/><path id="s" d="M21.39-11.266a9.4 9.4 0 0 1-.75 1.125A9.63 9.63 0 0 1 14.532-6.5c-2.469.406-4.953-.14-6.953-1.484-2.031-1.375-3.375-3.391-3.75-5.735-.39-2.344.235-4.703 1.703-6.64C7-22.33 9.171-23.594 11.641-24c2.172-.36 4.312-.016 6.172.984l-.782-4.718c-.187-.032-.437-.094-.625-.125-1.781-.422-3.61-.438-5.422-.141-1.828.297-3.546.906-5.062 1.86a13 13 0 0 0-3.844 3.421 13.2 13.2 0 0 0-2.234 4.532 12.5 12.5 0 0 0-.219 5.156 12.2 12.2 0 0 0 1.86 4.781c.937 1.422 2.124 2.594 3.577 3.563 1.422.968 3 1.656 4.72 2.046a14.3 14.3 0 0 0 5.406.141 14.5 14.5 0 0 0 5.078-1.86c.734-.452 1.39-.937 2.015-1.468Zm0 0"/><path id="t" d="M6.656-3.562c-.218-1.313-1.562-2.22-2.953-1.985-1.422.219-2.36 1.5-2.14 2.813.218 1.343 1.515 2.218 2.937 2C5.89-.97 6.875-2.22 6.656-3.562m0 0"/></defs><g fill="#1b2d58" style="fill:#fff;fill-opacity:0" transform="translate(-28.174 -297.326)"><use xlink:href="#a" x="28.174" y="573.512" style="fill:#fff;fill-opacity:1"/></g><g fill="#1b2d58" style="fill:#fff;fill-opacity:0" transform="translate(-28.174 -297.326)"><use xlink:href="#b" x="196.4" y="535.794" style="fill:#fff;fill-opacity:1"/><use xlink:href="#c" x="305.028" y="517.903" style="fill:#fff;fill-opacity:1"/><use xlink:href="#d" x="401.321" y="502.044" style="fill:#fff;fill-opacity:1"/><use xlink:href="#e" x="509.949" y="484.153" style="fill:#fff;fill-opacity:1"/><use xlink:href="#f" x="608.032" y="467.998" style="fill:#fff;fill-opacity:1"/><use xlink:href="#g" x="716.66" y="450.108" style="fill:#fff;fill-opacity:1"/></g><g fill="#ec1c24" style="fill:#fff;fill-opacity:0" transform="translate(-28.174 -297.326)"><use xlink:href="#h" x="514.139" y="520.7" style="fill:#fff;fill-opacity:1"/><use xlink:href="#i" x="536.404" y="517.033" style="fill:#fff;fill-opacity:1"/><use xlink:href="#j" x="553.948" y="514.143" style="fill:#fff;fill-opacity:1"/><use xlink:href="#k" x="575.923" y="510.524" style="fill:#fff;fill-opacity:1"/><use xlink:href="#l" x="603.928" y="505.912" style="fill:#fff;fill-opacity:1"/></g><g fill="#ec1c24" style="fill:#fff;fill-opacity:0" transform="translate(-28.174 -297.326)"><use xlink:href="#m" x="620.491" y="503.184" style="fill:#fff;fill-opacity:1"/></g><g fill="#ec1c24" style="fill:#fff;fill-opacity:0" transform="translate(-28.174 -297.326)"><use xlink:href="#n" x="635.965" y="500.635" style="fill:#fff;fill-opacity:1"/><use xlink:href="#o" x="654.344" y="497.608" style="fill:#fff;fill-opacity:1"/><use xlink:href="#p" x="672.651" y="494.593" style="fill:#fff;fill-opacity:1"/></g><g fill="#ec1c24" style="fill:#fff;fill-opacity:0" transform="translate(-28.174 -297.326)"><use xlink:href="#q" x="690.231" y="491.698" style="fill:#fff;fill-opacity:1"/><use xlink:href="#r" x="712.387" y="488.049" style="fill:#fff;fill-opacity:1"/><use xlink:href="#s" x="720.451" y="486.721" style="fill:#fff;fill-opacity:1"/></g><g fill="#ec1c24" style="fill:#fff;fill-opacity:0" transform="translate(-28.174 -297.326)"><use xlink:href="#k" x="741.337" y="483.281" style="fill:#fff;fill-opacity:1"/><use xlink:href="#t" x="769.341" y="478.668" style="fill:#fff;fill-opacity:1"/></g></svg>